<svg xmlns="http://www.w3.org/2000/svg" xmlns:xlink="http://www.w3.org/1999/xlink" contentStyleType="text/css" data-diagram-type="CLASS" height="1577px" preserveAspectRatio="none" style="width:2605px;height:1577px;background:#FFFFFF;" version="1.1" viewBox="0 0 2605 1577" width="2605px" zoomAndPan="magnify"><defs/><g><!--class Point--><g id="elem_Point"><rect codeLine="1" fill="#F1F1F1" height="357.6406" id="Point" rx="2.5" ry="2.5" style="stroke:#181818;stroke-width:0.5;" width="413.4336" x="587" y="1213"/><ellipse cx="771.8369" cy="1229" fill="#ADD1B2" rx="11" ry="11" style="stroke:#181818;stroke-width:1;"/><path d="M774.8057,1234.6406 Q774.2275,1234.9375 773.5869,1235.0781 Q772.9463,1235.2344 772.2432,1235.2344 Q769.7432,1235.2344 768.415,1233.5938 Q767.1025,1231.9375 767.1025,1228.8125 Q767.1025,1225.6875 768.415,1224.0313 Q769.7432,1222.375 772.2432,1222.375 Q772.9463,1222.375 773.5869,1222.5313 Q774.2432,1222.6875 774.8057,1222.9844 L774.8057,1225.7031 Q774.1807,1225.125 773.5869,1224.8594 Q772.9932,1224.5781 772.3682,1224.5781 Q771.0244,1224.5781 770.3369,1225.6563 Q769.6494,1226.7188 769.6494,1228.8125 Q769.6494,1230.9063 770.3369,1231.9844 Q771.0244,1233.0469 772.3682,1233.0469 Q772.9932,1233.0469 773.5869,1232.7813 Q774.1807,1232.5 774.8057,1231.9219 L774.8057,1234.6406 Z " fill="#000000"/><text fill="#000000" font-family="sans-serif" font-size="14" lengthAdjust="spacing" textLength="35.2598" x="792.3369" y="1233.8467">Point</text><line style="stroke:#181818;stroke-width:0.5;" x1="588" x2="999.4336" y1="1245" y2="1245"/><rect fill="transparent" height="6" style="stroke:#C82930;stroke-width:1;" width="6" x="595" y="1255.6484"/><text fill="#000000" font-family="sans-serif" font-size="14" lengthAdjust="spacing" textLength="194.3867" x="607" y="1261.9951">data_: std::vector&lt;double&gt;</text><line style="stroke:#181818;stroke-width:0.5;" x1="588" x2="999.4336" y1="1269.2969" y2="1269.2969"/><ellipse cx="598" cy="1282.9453" fill="#84BE84" rx="3" ry="3" style="stroke:#038048;stroke-width:1;"/><text fill="#000000" font-family="sans-serif" font-size="14" lengthAdjust="spacing" textLength="174.8018" x="607" y="1286.292">Point(dimensions: size_t)</text><ellipse cx="598" cy="1299.2422" fill="#84BE84" rx="3" ry="3" style="stroke:#038048;stroke-width:1;"/><text fill="#000000" font-family="sans-serif" font-size="14" lengthAdjust="spacing" textLength="286.8564" x="607" y="1302.5889">Point(data: const std::vector&lt;double&gt;&amp;)</text><ellipse cx="598" cy="1315.5391" fill="#84BE84" rx="3" ry="3" style="stroke:#038048;stroke-width:1;"/><text fill="#000000" font-family="sans-serif" font-size="14" lengthAdjust="spacing" textLength="302.668" x="607" y="1318.8857">Point(data: std::initializer_list&lt;double&gt;&amp;&amp;)</text><ellipse cx="598" cy="1331.8359" fill="#84BE84" rx="3" ry="3" style="stroke:#038048;stroke-width:1;"/><text fill="#000000" font-family="sans-serif" font-size="14" lengthAdjust="spacing" textLength="181.1934" x="607" y="1335.1826">Point(other: const Point&amp;)</text><ellipse cx="598" cy="1348.1328" fill="#84BE84" rx="3" ry="3" style="stroke:#038048;stroke-width:1;"/><text fill="#000000" font-family="sans-serif" font-size="14" lengthAdjust="spacing" textLength="149.7412" x="607" y="1351.4795">Point(other: Point&amp;&amp;)</text><ellipse cx="598" cy="1364.4297" fill="#84BE84" rx="3" ry="3" style="stroke:#038048;stroke-width:1;"/><text fill="#000000" font-family="sans-serif" font-size="14" lengthAdjust="spacing" textLength="273.2188" x="607" y="1367.7764">operator=(other: const Point&amp;): Point&amp;</text><ellipse cx="598" cy="1380.7266" fill="#84BE84" rx="3" ry="3" style="stroke:#038048;stroke-width:1;"/><text fill="#000000" font-family="sans-serif" font-size="14" lengthAdjust="spacing" textLength="241.7666" x="607" y="1384.0732">operator=(other: Point&amp;&amp;): Point&amp;</text><ellipse cx="598" cy="1397.0234" fill="#84BE84" rx="3" ry="3" style="stroke:#038048;stroke-width:1;"/><text fill="#000000" font-family="sans-serif" font-size="14" lengthAdjust="spacing" textLength="57.9141" x="607" y="1400.3701">~Point()</text><ellipse cx="598" cy="1413.3203" fill="#84BE84" rx="3" ry="3" style="stroke:#038048;stroke-width:1;"/><text fill="#000000" font-family="sans-serif" font-size="14" lengthAdjust="spacing" textLength="88.4639" x="607" y="1416.667">Size(): size_t</text><ellipse cx="598" cy="1429.6172" fill="#84BE84" rx="3" ry="3" style="stroke:#038048;stroke-width:1;"/><text fill="#000000" font-family="sans-serif" font-size="14" lengthAdjust="spacing" textLength="251.1729" x="607" y="1432.9639">operator[](idx: size_t) const: double</text><ellipse cx="598" cy="1445.9141" fill="#84BE84" rx="3" ry="3" style="stroke:#038048;stroke-width:1;"/><text fill="#000000" font-family="sans-serif" font-size="14" lengthAdjust="spacing" textLength="219.7207" x="607" y="1449.2607">operator[](idx: size_t): double&amp;</text><ellipse cx="598" cy="1462.2109" fill="#84BE84" rx="3" ry="3" style="stroke:#038048;stroke-width:1;"/><text fill="#000000" font-family="sans-serif" font-size="14" lengthAdjust="spacing" textLength="284.9492" x="607" y="1465.5576">operator+=(other: const Point&amp;): Point&amp;</text><ellipse cx="598" cy="1478.5078" fill="#84BE84" rx="3" ry="3" style="stroke:#038048;stroke-width:1;"/><text fill="#000000" font-family="sans-serif" font-size="14" lengthAdjust="spacing" textLength="278.2705" x="607" y="1481.8545">operator-=(other: const Point&amp;): Point&amp;</text><ellipse cx="598" cy="1494.8047" fill="#84BE84" rx="3" ry="3" style="stroke:#038048;stroke-width:1;"/><text fill="#000000" font-family="sans-serif" font-size="14" lengthAdjust="spacing" textLength="231.8955" x="607" y="1498.1514">operator*=(coef: double): Point&amp;</text><ellipse cx="598" cy="1511.1016" fill="#84BE84" rx="3" ry="3" style="stroke:#038048;stroke-width:1;"/><text fill="#000000" font-family="sans-serif" font-size="14" lengthAdjust="spacing" textLength="387.4336" x="607" y="1514.4482">operator+(left: const Point&amp;, right: const Point&amp;): Point</text><ellipse cx="598" cy="1527.3984" fill="#84BE84" rx="3" ry="3" style="stroke:#038048;stroke-width:1;"/><text fill="#000000" font-family="sans-serif" font-size="14" lengthAdjust="spacing" textLength="380.7549" x="607" y="1530.7451">operator-(left: const Point&amp;, right: const Point&amp;): Point</text><ellipse cx="598" cy="1543.6953" fill="#84BE84" rx="3" ry="3" style="stroke:#038048;stroke-width:1;"/><text fill="#000000" font-family="sans-serif" font-size="14" lengthAdjust="spacing" textLength="351.5654" x="607" y="1547.042">operator*(point: const Point&amp;, coef: double): Point</text><ellipse cx="598" cy="1559.9922" fill="#84BE84" rx="3" ry="3" style="stroke:#038048;stroke-width:1;"/><text fill="#000000" font-family="sans-serif" font-size="14" lengthAdjust="spacing" textLength="351.5654" x="607" y="1563.3389">operator*(coef: double, point: const Point&amp;): Point</text></g><!--class Log--><g id="elem_Log"><rect codeLine="23" fill="#F1F1F1" height="96.8906" id="Log" rx="2.5" ry="2.5" style="stroke:#181818;stroke-width:0.5;" width="212.3955" x="166.5" y="1031"/><ellipse cx="255.8218" cy="1047" fill="#ADD1B2" rx="11" ry="11" style="stroke:#181818;stroke-width:1;"/><path d="M258.7905,1052.6406 Q258.2124,1052.9375 257.5718,1053.0781 Q256.9312,1053.2344 256.228,1053.2344 Q253.728,1053.2344 252.3999,1051.5938 Q251.0874,1049.9375 251.0874,1046.8125 Q251.0874,1043.6875 252.3999,1042.0313 Q253.728,1040.375 256.228,1040.375 Q256.9312,1040.375 257.5718,1040.5313 Q258.228,1040.6875 258.7905,1040.9844 L258.7905,1043.7031 Q258.1655,1043.125 257.5718,1042.8594 Q256.978,1042.5781 256.353,1042.5781 Q255.0093,1042.5781 254.3218,1043.6563 Q253.6343,1044.7188 253.6343,1046.8125 Q253.6343,1048.9063 254.3218,1049.9844 Q255.0093,1051.0469 256.353,1051.0469 Q256.978,1051.0469 257.5718,1050.7813 Q258.1655,1050.5 258.7905,1049.9219 L258.7905,1052.6406 Z " fill="#000000"/><text fill="#000000" font-family="sans-serif" font-size="14" lengthAdjust="spacing" textLength="25.252" x="276.3218" y="1051.8467">Log</text><line style="stroke:#181818;stroke-width:0.5;" x1="167.5" x2="377.8955" y1="1063" y2="1063"/><ellipse cx="177.5" cy="1076.6484" fill="transparent" rx="3" ry="3" style="stroke:#038048;stroke-width:1;"/><text fill="#000000" font-family="sans-serif" font-size="14" lengthAdjust="spacing" textLength="186.3955" x="186.5" y="1079.9951">points: std::vector&lt;Point&gt;</text><ellipse cx="177.5" cy="1092.9453" fill="transparent" rx="3" ry="3" style="stroke:#038048;stroke-width:1;"/><text fill="#000000" font-family="sans-serif" font-size="14" lengthAdjust="spacing" textLength="118.248" x="186.5" y="1096.292">measure: double</text><ellipse cx="177.5" cy="1109.2422" fill="transparent" rx="3" ry="3" style="stroke:#038048;stroke-width:1;"/><text fill="#000000" font-family="sans-serif" font-size="14" lengthAdjust="spacing" textLength="115.0078" x="186.5" y="1112.5889">func_val: double</text><line style="stroke:#181818;stroke-width:0.5;" x1="167.5" x2="377.8955" y1="1119.8906" y2="1119.8906"/></g><!--class Function--><g id="elem_Function"><rect codeLine="29" fill="#F1F1F1" height="113.1875" id="Function" rx="2.5" ry="2.5" style="stroke:#181818;stroke-width:0.5;" width="297.6396" x="644.5" y="1023"/><ellipse cx="758.9131" cy="1039" fill="#ADD1B2" rx="11" ry="11" style="stroke:#181818;stroke-width:1;"/><path d="M761.8818,1044.6406 Q761.3037,1044.9375 760.6631,1045.0781 Q760.0225,1045.2344 759.3193,1045.2344 Q756.8193,1045.2344 755.4912,1043.5938 Q754.1787,1041.9375 754.1787,1038.8125 Q754.1787,1035.6875 755.4912,1034.0313 Q756.8193,1032.375 759.3193,1032.375 Q760.0225,1032.375 760.6631,1032.5313 Q761.3193,1032.6875 761.8818,1032.9844 L761.8818,1035.7031 Q761.2568,1035.125 760.6631,1034.8594 Q760.0693,1034.5781 759.4443,1034.5781 Q758.1006,1034.5781 757.4131,1035.6563 Q756.7256,1036.7188 756.7256,1038.8125 Q756.7256,1040.9063 757.4131,1041.9844 Q758.1006,1043.0469 759.4443,1043.0469 Q760.0693,1043.0469 760.6631,1042.7813 Q761.2568,1042.5 761.8818,1041.9219 L761.8818,1044.6406 Z " fill="#000000"/><text fill="#000000" font-family="sans-serif" font-size="14" lengthAdjust="spacing" textLength="60.3135" x="779.4131" y="1043.8467">Function</text><line style="stroke:#181818;stroke-width:0.5;" x1="645.5" x2="941.1396" y1="1055" y2="1055"/><rect fill="transparent" height="6" style="stroke:#C82930;stroke-width:1;" width="6" x="652.5" y="1065.6484"/><text fill="#000000" font-family="sans-serif" font-size="14" lengthAdjust="spacing" textLength="163.5293" x="664.5" y="1071.9951">expression_: std::string</text><rect fill="transparent" height="6" style="stroke:#C82930;stroke-width:1;" width="6" x="652.5" y="1081.9453"/><text fill="#000000" font-family="sans-serif" font-size="14" lengthAdjust="spacing" textLength="271.6396" x="664.5" y="1088.292">vecOperand_: std::vector&lt;std::string&gt;</text><line style="stroke:#181818;stroke-width:0.5;" x1="645.5" x2="941.1396" y1="1095.5938" y2="1095.5938"/><ellipse cx="655.5" cy="1109.2422" fill="#84BE84" rx="3" ry="3" style="stroke:#038048;stroke-width:1;"/><text fill="#000000" font-family="sans-serif" font-size="14" lengthAdjust="spacing" textLength="227.7666" x="664.5" y="1112.5889">Function(expression: std::string)</text><ellipse cx="655.5" cy="1125.5391" fill="#84BE84" rx="3" ry="3" style="stroke:#038048;stroke-width:1;"/><text fill="#000000" font-family="sans-serif" font-size="14" lengthAdjust="spacing" textLength="224.2393" x="664.5" y="1128.8857">Calculate(point: Point&amp;): double</text></g><!--class NelderMeadSolver--><g id="elem_NelderMeadSolver"><rect codeLine="36" fill="#F1F1F1" height="373.9375" id="NelderMeadSolver" rx="2.5" ry="2.5" style="stroke:#181818;stroke-width:0.5;" width="722.8623" x="339" y="572"/><ellipse cx="631.9883" cy="588" fill="#ADD1B2" rx="11" ry="11" style="stroke:#181818;stroke-width:1;"/><path d="M634.957,593.6406 Q634.3789,593.9375 633.7383,594.0781 Q633.0977,594.2344 632.3945,594.2344 Q629.8945,594.2344 628.5664,592.5938 Q627.2539,590.9375 627.2539,587.8125 Q627.2539,584.6875 628.5664,583.0313 Q629.8945,581.375 632.3945,581.375 Q633.0977,581.375 633.7383,581.5313 Q634.3945,581.6875 634.957,581.9844 L634.957,584.7031 Q634.332,584.125 633.7383,583.8594 Q633.1445,583.5781 632.5195,583.5781 Q631.1758,583.5781 630.4883,584.6563 Q629.8008,585.7188 629.8008,587.8125 Q629.8008,589.9063 630.4883,590.9844 Q631.1758,592.0469 632.5195,592.0469 Q633.1445,592.0469 633.7383,591.7813 Q634.332,591.5 634.957,590.9219 L634.957,593.6406 Z " fill="#000000"/><text fill="#000000" font-family="sans-serif" font-size="14" lengthAdjust="spacing" textLength="128.3857" x="652.4883" y="592.8467">NelderMeadSolver</text><line style="stroke:#181818;stroke-width:0.5;" x1="340" x2="1060.8623" y1="604" y2="604"/><rect fill="transparent" height="6" style="stroke:#C82930;stroke-width:1;" width="6" x="347" y="614.6484"/><text fill="#000000" font-family="sans-serif" font-size="14" lengthAdjust="spacing" textLength="88.6758" x="359" y="620.9951">eps_: double</text><rect fill="transparent" height="6" style="stroke:#C82930;stroke-width:1;" width="6" x="347" y="630.9453"/><text fill="#000000" font-family="sans-serif" font-size="14" lengthAdjust="spacing" textLength="98.4375" x="359" y="637.292">epoch_: size_t</text><rect fill="transparent" height="6" style="stroke:#C82930;stroke-width:1;" width="6" x="347" y="647.2422"/><text fill="#000000" font-family="sans-serif" font-size="14" lengthAdjust="spacing" textLength="423.0967" x="359" y="653.5889">optimized_functions_: std::map&lt;std::string, std::list&lt;Log&gt;&gt;</text><rect fill="transparent" height="6" style="stroke:#C82930;stroke-width:1;" width="6" x="347" y="663.5391"/><text fill="#000000" font-family="sans-serif" font-size="14" lengthAdjust="spacing" textLength="186.293" x="359" y="669.8857">expan_coef_: const double</text><rect fill="transparent" height="6" style="stroke:#C82930;stroke-width:1;" width="6" x="347" y="679.8359"/><text fill="#000000" font-family="sans-serif" font-size="14" lengthAdjust="spacing" textLength="181.959" x="359" y="686.1826">shrnk_coef_: const double</text><rect fill="transparent" height="6" style="stroke:#C82930;stroke-width:1;" width="6" x="347" y="696.1328"/><text fill="#000000" font-family="sans-serif" font-size="14" lengthAdjust="spacing" textLength="174.8564" x="359" y="702.4795">refle_coef_: const double</text><rect fill="transparent" height="6" style="stroke:#C82930;stroke-width:1;" width="6" x="347" y="712.4297"/><text fill="#000000" font-family="sans-serif" font-size="14" lengthAdjust="spacing" textLength="208.9951" x="359" y="718.7764">update_simplex_: const size_t</text><line style="stroke:#181818;stroke-width:0.5;" x1="340" x2="1060.8623" y1="726.0781" y2="726.0781"/><ellipse cx="350" cy="739.7266" fill="#84BE84" rx="3" ry="3" style="stroke:#038048;stroke-width:1;"/><text fill="#000000" font-family="sans-serif" font-size="14" lengthAdjust="spacing" textLength="429.6934" x="359" y="743.0732">NelderMeadSolver(eps: double = 10e-5, epoch: size_t = 100)</text><ellipse cx="350" cy="756.0234" fill="#84BE84" rx="3" ry="3" style="stroke:#038048;stroke-width:1;"/><text fill="#000000" font-family="sans-serif" font-size="14" lengthAdjust="spacing" textLength="503.4395" x="359" y="759.3701">Optimize(function: const std::string&amp;, start_point: const Point&amp;): double</text><ellipse cx="350" cy="772.3203" fill="#84BE84" rx="3" ry="3" style="stroke:#038048;stroke-width:1;"/><text fill="#000000" font-family="sans-serif" font-size="14" lengthAdjust="spacing" textLength="320.5439" x="359" y="775.667">CountDim(function: const std::string&amp;): size_t</text><ellipse cx="350" cy="788.6172" fill="#84BE84" rx="3" ry="3" style="stroke:#038048;stroke-width:1;"/><text fill="#000000" font-family="sans-serif" font-size="14" lengthAdjust="spacing" textLength="368.9014" x="359" y="791.9639">GetLogs(function: const std::string&amp;): std::list&lt;Log&gt;</text><ellipse cx="350" cy="804.9141" fill="#84BE84" rx="3" ry="3" style="stroke:#038048;stroke-width:1;"/><text fill="#000000" font-family="sans-serif" font-size="14" lengthAdjust="spacing" textLength="134.9688" x="359" y="808.2607">eps() const: double</text><ellipse cx="350" cy="821.2109" fill="#84BE84" rx="3" ry="3" style="stroke:#038048;stroke-width:1;"/><text fill="#000000" font-family="sans-serif" font-size="14" lengthAdjust="spacing" textLength="103.5166" x="359" y="824.5576">eps(): double&amp;</text><ellipse cx="350" cy="837.5078" fill="#84BE84" rx="3" ry="3" style="stroke:#038048;stroke-width:1;"/><text fill="#000000" font-family="sans-serif" font-size="14" lengthAdjust="spacing" textLength="144.7305" x="359" y="840.8545">epoch() const: size_t</text><ellipse cx="350" cy="853.8047" fill="#84BE84" rx="3" ry="3" style="stroke:#038048;stroke-width:1;"/><text fill="#000000" font-family="sans-serif" font-size="14" lengthAdjust="spacing" textLength="113.2783" x="359" y="857.1514">epoch(): size_t&amp;</text><rect fill="#F24D5C" height="6" style="stroke:#C82930;stroke-width:1;" width="6" x="347" y="867.1016"/><text fill="#000000" font-family="sans-serif" font-size="14" lengthAdjust="spacing" textLength="469.6836" x="359" y="873.4482">CalcCenter_(simplex: const std::multimap&lt;double, Point&gt;&amp;): Point</text><rect fill="#F24D5C" height="6" style="stroke:#C82930;stroke-width:1;" width="6" x="347" y="883.3984"/><text fill="#000000" font-family="sans-serif" font-size="14" lengthAdjust="spacing" textLength="685.4121" x="359" y="889.7451">GenerateSimplex_(dim: size_t, start_point: Point, func: Function&amp;): std::multimap&lt;double, Point&gt;</text><rect fill="#F24D5C" height="6" style="stroke:#C82930;stroke-width:1;" width="6" x="347" y="899.6953"/><text fill="#000000" font-family="sans-serif" font-size="14" lengthAdjust="spacing" textLength="610.4971" x="359" y="906.042">SimplexToVector_(simplex: const std::multimap&lt;double, Point&gt;&amp;): std::vector&lt;Point&gt;</text><rect fill="#F24D5C" height="6" style="stroke:#C82930;stroke-width:1;" width="6" x="347" y="915.9922"/><text fill="#000000" font-family="sans-serif" font-size="14" lengthAdjust="spacing" textLength="696.8623" x="359" y="922.3389">LocalShrink_(func: Function&amp;, simplex: std::multimap&lt;double, Point&gt;&amp;, center: const Point&amp;): void</text><rect fill="#F24D5C" height="6" style="stroke:#C82930;stroke-width:1;" width="6" x="347" y="932.2891"/><text fill="#000000" font-family="sans-serif" font-size="14" lengthAdjust="spacing" textLength="553.335" x="359" y="938.6357">GlobalShrink_(func: Function&amp;, simplex: std::multimap&lt;double, Point&gt;&amp;): void</text></g><!--class stringResources--><g id="elem_stringResources"><rect codeLine="59" fill="#F1F1F1" height="292.4531" id="stringResources" rx="2.5" ry="2.5" style="stroke:#181818;stroke-width:0.5;" width="289.9629" x="2045.5" y="613"/><ellipse cx="2129.9204" cy="629" fill="#ADD1B2" rx="11" ry="11" style="stroke:#181818;stroke-width:1;"/><path d="M2132.8892,634.6406 Q2132.311,634.9375 2131.6704,635.0781 Q2131.0298,635.2344 2130.3267,635.2344 Q2127.8267,635.2344 2126.4985,633.5938 Q2125.186,631.9375 2125.186,628.8125 Q2125.186,625.6875 2126.4985,624.0313 Q2127.8267,622.375 2130.3267,622.375 Q2131.0298,622.375 2131.6704,622.5313 Q2132.3267,622.6875 2132.8892,622.9844 L2132.8892,625.7031 Q2132.2642,625.125 2131.6704,624.8594 Q2131.0767,624.5781 2130.4517,624.5781 Q2129.1079,624.5781 2128.4204,625.6563 Q2127.7329,626.7188 2127.7329,628.8125 Q2127.7329,630.9063 2128.4204,631.9844 Q2129.1079,633.0469 2130.4517,633.0469 Q2131.0767,633.0469 2131.6704,632.7813 Q2132.2642,632.5 2132.8892,631.9219 L2132.8892,634.6406 Z " fill="#000000"/><text fill="#000000" font-family="sans-serif" font-size="14" lengthAdjust="spacing" textLength="112.6221" x="2150.4204" y="633.8467">stringResources</text><line style="stroke:#181818;stroke-width:0.5;" x1="2046.5" x2="2334.4629" y1="645" y2="645"/><line style="stroke:#181818;stroke-width:0.5;" x1="2046.5" x2="2334.4629" y1="653" y2="653"/><ellipse cx="2056.5" cy="666.6484" fill="#84BE84" rx="3" ry="3" style="stroke:#038048;stroke-width:1;"/><text fill="#000000" font-family="sans-serif" font-size="14" lengthAdjust="spacing" textLength="157.8896" x="2065.5" y="669.9951">stringResources():void</text><ellipse cx="2056.5" cy="682.9453" fill="#84BE84" rx="3" ry="3" style="stroke:#038048;stroke-width:1;"/><text fill="#000000" font-family="sans-serif" font-size="14" lengthAdjust="spacing" textLength="169.6201" x="2065.5" y="686.292">~stringResources():void</text><ellipse cx="2056.5" cy="699.2422" fill="#84BE84" rx="3" ry="3" style="stroke:#038048;stroke-width:1;"/><text fill="#000000" font-family="sans-serif" font-size="14" lengthAdjust="spacing" textLength="213.8145" x="2065.5" y="702.5889">getMainWinTitle(): const char*</text><ellipse cx="2056.5" cy="715.5391" fill="#84BE84" rx="3" ry="3" style="stroke:#038048;stroke-width:1;"/><text fill="#000000" font-family="sans-serif" font-size="14" lengthAdjust="spacing" textLength="223.7539" x="2065.5" y="718.8857">getStartPointText(): const char*</text><ellipse cx="2056.5" cy="731.8359" fill="#84BE84" rx="3" ry="3" style="stroke:#038048;stroke-width:1;"/><text fill="#000000" font-family="sans-serif" font-size="14" lengthAdjust="spacing" textLength="190.5449" x="2065.5" y="735.1826">getInputText(): const char*</text><ellipse cx="2056.5" cy="748.1328" fill="#84BE84" rx="3" ry="3" style="stroke:#038048;stroke-width:1;"/><text fill="#000000" font-family="sans-serif" font-size="14" lengthAdjust="spacing" textLength="263.9629" x="2065.5" y="751.4795">getOptimizeButtonText(): const char*</text><ellipse cx="2056.5" cy="764.4297" fill="#84BE84" rx="3" ry="3" style="stroke:#038048;stroke-width:1;"/><text fill="#000000" font-family="sans-serif" font-size="14" lengthAdjust="spacing" textLength="237.8018" x="2065.5" y="767.7764">getClearButtonText(): const char*</text><ellipse cx="2056.5" cy="780.7266" fill="#84BE84" rx="3" ry="3" style="stroke:#038048;stroke-width:1;"/><text fill="#000000" font-family="sans-serif" font-size="14" lengthAdjust="spacing" textLength="233.7344" x="2065.5" y="784.0732">getLogsButtonText(): const char*</text><ellipse cx="2056.5" cy="797.0234" fill="#84BE84" rx="3" ry="3" style="stroke:#038048;stroke-width:1;"/><text fill="#000000" font-family="sans-serif" font-size="14" lengthAdjust="spacing" textLength="258.6104" x="2065.5" y="800.3701">getSettingsButtonText(): const char*</text><ellipse cx="2056.5" cy="813.3203" fill="#84BE84" rx="3" ry="3" style="stroke:#038048;stroke-width:1;"/><text fill="#000000" font-family="sans-serif" font-size="14" lengthAdjust="spacing" textLength="234.8213" x="2065.5" y="816.667">getDefaultFunction(): const char*</text><ellipse cx="2056.5" cy="829.6172" fill="#84BE84" rx="3" ry="3" style="stroke:#038048;stroke-width:1;"/><text fill="#000000" font-family="sans-serif" font-size="14" lengthAdjust="spacing" textLength="220.9717" x="2065.5" y="832.9639">getIterationsText(): const char*</text><ellipse cx="2056.5" cy="845.9141" fill="#84BE84" rx="3" ry="3" style="stroke:#038048;stroke-width:1;"/><text fill="#000000" font-family="sans-serif" font-size="14" lengthAdjust="spacing" textLength="228.71" x="2065.5" y="849.2607">getDimensionText(): const char*</text><ellipse cx="2056.5" cy="862.2109" fill="#84BE84" rx="3" ry="3" style="stroke:#038048;stroke-width:1;"/><text fill="#000000" font-family="sans-serif" font-size="14" lengthAdjust="spacing" textLength="205.8574" x="2065.5" y="865.5576">getAnswerText(): const char*</text><ellipse cx="2056.5" cy="878.5078" fill="#84BE84" rx="3" ry="3" style="stroke:#038048;stroke-width:1;"/><text fill="#000000" font-family="sans-serif" font-size="14" lengthAdjust="spacing" textLength="179.3203" x="2065.5" y="881.8545">getEpsText(): const char*</text><ellipse cx="2056.5" cy="894.8047" fill="#84BE84" rx="3" ry="3" style="stroke:#038048;stroke-width:1;"/><text fill="#000000" font-family="sans-serif" font-size="14" lengthAdjust="spacing" textLength="197.1621" x="2065.5" y="898.1514">getEpochText(): const char*</text></g><!--class windowSetup--><g id="elem_windowSetup"><rect codeLine="77" fill="#F1F1F1" height="178.375" id="windowSetup" rx="2.5" ry="2.5" style="stroke:#181818;stroke-width:0.5;" width="227.8037" x="2370.5" y="670"/><ellipse cx="2433.2197" cy="686" fill="#ADD1B2" rx="11" ry="11" style="stroke:#181818;stroke-width:1;"/><path d="M2436.1885,691.6406 Q2435.6104,691.9375 2434.9697,692.0781 Q2434.3291,692.2344 2433.626,692.2344 Q2431.126,692.2344 2429.7979,690.5938 Q2428.4854,688.9375 2428.4854,685.8125 Q2428.4854,682.6875 2429.7979,681.0313 Q2431.126,679.375 2433.626,679.375 Q2434.3291,679.375 2434.9697,679.5313 Q2435.626,679.6875 2436.1885,679.9844 L2436.1885,682.7031 Q2435.5635,682.125 2434.9697,681.8594 Q2434.376,681.5781 2433.751,681.5781 Q2432.4072,681.5781 2431.7197,682.6563 Q2431.0322,683.7188 2431.0322,685.8125 Q2431.0322,687.9063 2431.7197,688.9844 Q2432.4072,690.0469 2433.751,690.0469 Q2434.376,690.0469 2434.9697,689.7813 Q2435.5635,689.5 2436.1885,688.9219 L2436.1885,691.6406 Z " fill="#000000"/><text fill="#000000" font-family="sans-serif" font-size="14" lengthAdjust="spacing" textLength="93.8643" x="2453.7197" y="690.8467">windowSetup</text><line style="stroke:#181818;stroke-width:0.5;" x1="2371.5" x2="2597.3037" y1="702" y2="702"/><line style="stroke:#181818;stroke-width:0.5;" x1="2371.5" x2="2597.3037" y1="710" y2="710"/><ellipse cx="2381.5" cy="723.6484" fill="#84BE84" rx="3" ry="3" style="stroke:#038048;stroke-width:1;"/><text fill="#000000" font-family="sans-serif" font-size="14" lengthAdjust="spacing" textLength="104.7881" x="2390.5" y="726.9951">windowSetup()</text><ellipse cx="2381.5" cy="739.9453" fill="#84BE84" rx="3" ry="3" style="stroke:#038048;stroke-width:1;"/><text fill="#000000" font-family="sans-serif" font-size="14" lengthAdjust="spacing" textLength="116.5186" x="2390.5" y="743.292">~windowSetup()</text><ellipse cx="2381.5" cy="756.2422" fill="#84BE84" rx="3" ry="3" style="stroke:#038048;stroke-width:1;"/><text fill="#000000" font-family="sans-serif" font-size="14" lengthAdjust="spacing" textLength="177.8027" x="2390.5" y="759.5889">setupMainWindow(): void</text><ellipse cx="2381.5" cy="772.5391" fill="#84BE84" rx="3" ry="3" style="stroke:#038048;stroke-width:1;"/><text fill="#000000" font-family="sans-serif" font-size="14" lengthAdjust="spacing" textLength="180.6328" x="2390.5" y="775.8857">setupInputWindow(): void</text><ellipse cx="2381.5" cy="788.8359" fill="#84BE84" rx="3" ry="3" style="stroke:#038048;stroke-width:1;"/><text fill="#000000" font-family="sans-serif" font-size="14" lengthAdjust="spacing" textLength="193.0127" x="2390.5" y="792.1826">setupOutputWindow(): void</text><ellipse cx="2381.5" cy="805.1328" fill="#84BE84" rx="3" ry="3" style="stroke:#038048;stroke-width:1;"/><text fill="#000000" font-family="sans-serif" font-size="14" lengthAdjust="spacing" textLength="201.8037" x="2390.5" y="808.4795">setupSettingsWindow(): void</text><ellipse cx="2381.5" cy="821.4297" fill="#84BE84" rx="3" ry="3" style="stroke:#038048;stroke-width:1;"/><text fill="#000000" font-family="sans-serif" font-size="14" lengthAdjust="spacing" textLength="176.9277" x="2390.5" y="824.7764">setupLogsWindow(): void</text><ellipse cx="2381.5" cy="837.7266" fill="#84BE84" rx="3" ry="3" style="stroke:#038048;stroke-width:1;"/><text fill="#000000" font-family="sans-serif" font-size="14" lengthAdjust="spacing" textLength="124.0381" x="2390.5" y="841.0732">setupStyle(): void</text></g><!--class AppUI--><g id="elem_AppUI"><rect codeLine="88" fill="#F1F1F1" height="488.0156" id="AppUI" rx="2.5" ry="2.5" style="stroke:#181818;stroke-width:0.5;" width="371.666" x="514.5" y="7"/><ellipse cx="675.2197" cy="23" fill="#ADD1B2" rx="11" ry="11" style="stroke:#181818;stroke-width:1;"/><path d="M678.1885,28.6406 Q677.6104,28.9375 676.9697,29.0781 Q676.3291,29.2344 675.626,29.2344 Q673.126,29.2344 671.7979,27.5938 Q670.4854,25.9375 670.4854,22.8125 Q670.4854,19.6875 671.7979,18.0313 Q673.126,16.375 675.626,16.375 Q676.3291,16.375 676.9697,16.5313 Q677.626,16.6875 678.1885,16.9844 L678.1885,19.7031 Q677.5635,19.125 676.9697,18.8594 Q676.376,18.5781 675.751,18.5781 Q674.4072,18.5781 673.7197,19.6563 Q673.0322,20.7188 673.0322,22.8125 Q673.0322,24.9063 673.7197,25.9844 Q674.4072,27.0469 675.751,27.0469 Q676.376,27.0469 676.9697,26.7813 Q677.5635,26.5 678.1885,25.9219 L678.1885,28.6406 Z " fill="#000000"/><text fill="#000000" font-family="sans-serif" font-size="14" lengthAdjust="spacing" textLength="41.7266" x="695.7197" y="27.8467">AppUI</text><line style="stroke:#181818;stroke-width:0.5;" x1="515.5" x2="885.166" y1="39" y2="39"/><rect fill="transparent" height="6" style="stroke:#C82930;stroke-width:1;" width="6" x="522.5" y="49.6484"/><text fill="#000000" font-family="sans-serif" font-size="14" lengthAdjust="spacing" textLength="186.9561" x="534.5" y="55.9951">_solver: NelderMeadSolver</text><rect fill="transparent" height="6" style="stroke:#C82930;stroke-width:1;" width="6" x="522.5" y="65.9453"/><text fill="#000000" font-family="sans-serif" font-size="14" lengthAdjust="spacing" textLength="194.3662" x="534.5" y="72.292">_readedFunction: char[128]</text><rect fill="transparent" height="6" style="stroke:#C82930;stroke-width:1;" width="6" x="522.5" y="82.2422"/><text fill="#000000" font-family="sans-serif" font-size="14" lengthAdjust="spacing" textLength="181.043" x="534.5" y="88.5889">_inputFunction: char[128]</text><rect fill="transparent" height="6" style="stroke:#C82930;stroke-width:1;" width="6" x="522.5" y="98.5391"/><text fill="#000000" font-family="sans-serif" font-size="14" lengthAdjust="spacing" textLength="145.1133" x="534.5" y="104.8857">_defaultString: char*</text><rect fill="transparent" height="6" style="stroke:#C82930;stroke-width:1;" width="6" x="522.5" y="114.8359"/><text fill="#000000" font-family="sans-serif" font-size="14" lengthAdjust="spacing" textLength="119.2939" x="534.5" y="121.1826">_startPoint: Point</text><rect fill="transparent" height="6" style="stroke:#C82930;stroke-width:1;" width="6" x="522.5" y="131.1328"/><text fill="#000000" font-family="sans-serif" font-size="14" lengthAdjust="spacing" textLength="145.1816" x="534.5" y="137.4795">_logs: std::list&lt;Log&gt;</text><rect fill="transparent" height="6" style="stroke:#C82930;stroke-width:1;" width="6" x="522.5" y="147.4297"/><text fill="#000000" font-family="sans-serif" font-size="14" lengthAdjust="spacing" textLength="139.2822" x="534.5" y="153.7764">_printFunction: bool</text><rect fill="transparent" height="6" style="stroke:#C82930;stroke-width:1;" width="6" x="522.5" y="163.7266"/><text fill="#000000" font-family="sans-serif" font-size="14" lengthAdjust="spacing" textLength="166.708" x="534.5" y="170.0732">_optimizeFunction: bool</text><rect fill="transparent" height="6" style="stroke:#C82930;stroke-width:1;" width="6" x="522.5" y="180.0234"/><text fill="#000000" font-family="sans-serif" font-size="14" lengthAdjust="spacing" textLength="130.1221" x="534.5" y="186.3701">_printDefault: bool</text><rect fill="transparent" height="6" style="stroke:#C82930;stroke-width:1;" width="6" x="522.5" y="196.3203"/><text fill="#000000" font-family="sans-serif" font-size="14" lengthAdjust="spacing" textLength="139.6787" x="534.5" y="202.667">_showSettings: bool</text><rect fill="transparent" height="6" style="stroke:#C82930;stroke-width:1;" width="6" x="522.5" y="212.6172"/><text fill="#000000" font-family="sans-serif" font-size="14" lengthAdjust="spacing" textLength="114.8027" x="534.5" y="218.9639">_showLogs: bool</text><rect fill="transparent" height="6" style="stroke:#C82930;stroke-width:1;" width="6" x="522.5" y="228.9141"/><text fill="#000000" font-family="sans-serif" font-size="14" lengthAdjust="spacing" textLength="114.4473" x="534.5" y="235.2607">_answer: double</text><rect fill="transparent" height="6" style="stroke:#C82930;stroke-width:1;" width="6" x="522.5" y="245.2109"/><text fill="#000000" font-family="sans-serif" font-size="14" lengthAdjust="spacing" textLength="82.0654" x="534.5" y="251.5576">_error: float</text><rect fill="transparent" height="6" style="stroke:#C82930;stroke-width:1;" width="6" x="522.5" y="261.5078"/><text fill="#000000" font-family="sans-serif" font-size="14" lengthAdjust="spacing" textLength="100.8574" x="534.5" y="267.8545">_iterations: int</text><rect fill="transparent" height="6" style="stroke:#C82930;stroke-width:1;" width="6" x="522.5" y="277.8047"/><text fill="#000000" font-family="sans-serif" font-size="14" lengthAdjust="spacing" textLength="135.6182" x="534.5" y="284.1514">_dimensions: size_t</text><line style="stroke:#181818;stroke-width:0.5;" x1="515.5" x2="885.166" y1="291.4531" y2="291.4531"/><ellipse cx="525.5" cy="305.1016" fill="#84BE84" rx="3" ry="3" style="stroke:#038048;stroke-width:1;"/><text fill="#000000" font-family="sans-serif" font-size="14" lengthAdjust="spacing" textLength="190.7637" x="534.5" y="308.4482">AppUI(defaultString: char*)</text><ellipse cx="525.5" cy="321.3984" fill="#84BE84" rx="3" ry="3" style="stroke:#038048;stroke-width:1;"/><text fill="#000000" font-family="sans-serif" font-size="14" lengthAdjust="spacing" textLength="52.6504" x="534.5" y="324.7451">AppUI()</text><ellipse cx="525.5" cy="337.6953" fill="#84BE84" rx="3" ry="3" style="stroke:#038048;stroke-width:1;"/><text fill="#000000" font-family="sans-serif" font-size="14" lengthAdjust="spacing" textLength="64.3809" x="534.5" y="341.042">~AppUI()</text><ellipse cx="525.5" cy="353.9922" fill="#84BE84" rx="3" ry="3" style="stroke:#038048;stroke-width:1;"/><text fill="#000000" font-family="sans-serif" font-size="14" lengthAdjust="spacing" textLength="112.0479" x="534.5" y="357.3389">initFrame():void</text><ellipse cx="525.5" cy="370.2891" fill="#84BE84" rx="3" ry="3" style="stroke:#038048;stroke-width:1;"/><text fill="#000000" font-family="sans-serif" font-size="14" lengthAdjust="spacing" textLength="164.3359" x="534.5" y="373.6357">showIputWindow():void</text><ellipse cx="525.5" cy="386.5859" fill="#84BE84" rx="3" ry="3" style="stroke:#038048;stroke-width:1;"/><text fill="#000000" font-family="sans-serif" font-size="14" lengthAdjust="spacing" textLength="185.5889" x="534.5" y="389.9326">showOutputWindow():void</text><ellipse cx="525.5" cy="402.8828" fill="#84BE84" rx="3" ry="3" style="stroke:#038048;stroke-width:1;"/><text fill="#000000" font-family="sans-serif" font-size="14" lengthAdjust="spacing" textLength="194.3799" x="534.5" y="406.2295">showSettingsWindow():void</text><ellipse cx="525.5" cy="419.1797" fill="#84BE84" rx="3" ry="3" style="stroke:#038048;stroke-width:1;"/><text fill="#000000" font-family="sans-serif" font-size="14" lengthAdjust="spacing" textLength="345.666" x="534.5" y="422.5264">isExpressionCorrect(expression: std::string): bool</text><rect fill="#F24D5C" height="6" style="stroke:#C82930;stroke-width:1;" width="6" x="522.5" y="432.4766"/><text fill="#000000" font-family="sans-serif" font-size="14" lengthAdjust="spacing" textLength="251.2891" x="534.5" y="438.8232">printPoint(point: const Point&amp;): void</text><rect fill="#F24D5C" height="6" style="stroke:#C82930;stroke-width:1;" width="6" x="522.5" y="448.7734"/><text fill="#000000" font-family="sans-serif" font-size="14" lengthAdjust="spacing" textLength="141.8662" x="534.5" y="455.1201">readFunction(): void</text><rect fill="#F24D5C" height="6" style="stroke:#C82930;stroke-width:1;" width="6" x="522.5" y="465.0703"/><text fill="#000000" font-family="sans-serif" font-size="14" lengthAdjust="spacing" textLength="170.3516" x="534.5" y="471.417">optimizeFunction(): void</text><rect fill="#F24D5C" height="6" style="stroke:#C82930;stroke-width:1;" width="6" x="522.5" y="481.3672"/><text fill="#000000" font-family="sans-serif" font-size="14" lengthAdjust="spacing" textLength="144.5664" x="534.5" y="487.7139">clearFunction(): void</text></g><path d="M414,1062 L414,1070.5664 L372.8955,1075.1484 L414,1078.5664 L414,1087.1328 A0,0 0 0 0 414,1087.1328 L608.875,1087.1328 A0,0 0 0 0 608.875,1087.1328 L608.875,1072 L598.875,1062 L414,1062 A0,0 0 0 0 414,1062 " fill="#FEFFDD" style="stroke:#181818;stroke-width:0.5;"/><path d="M598.875,1062 L598.875,1072 L608.875,1072 L598.875,1062 " fill="#FEFFDD" style="stroke:#181818;stroke-width:0.5;"/><text fill="#000000" font-family="sans-serif" font-size="13" lengthAdjust="spacing" textLength="173.875" x="420" y="1079.0669">Vector of points in simplex</text><path d="M1035.5,1374.5 L1035.5,1383.0664 L801.3867,1257.1484 L1035.5,1391.0664 L1035.5,1399.6328 A0,0 0 0 0 1035.5,1399.6328 L1283.27,1399.6328 A0,0 0 0 0 1283.27,1399.6328 L1283.27,1384.5 L1273.27,1374.5 L1035.5,1374.5 A0,0 0 0 0 1035.5,1374.5 " fill="#FEFFDD" style="stroke:#181818;stroke-width:0.5;"/><path d="M1273.27,1374.5 L1273.27,1384.5 L1283.27,1384.5 L1273.27,1374.5 " fill="#FEFFDD" style="stroke:#181818;stroke-width:0.5;"/><text fill="#000000" font-family="sans-serif" font-size="13" lengthAdjust="spacing" textLength="226.77" x="1041.5" y="1391.5669">Stores the coordinates of the point</text><path d="M1646.5,741.5 L1646.5,750.0664 L782.0967,648.7422 L1646.5,758.0664 L1646.5,766.6328 A0,0 0 0 0 1646.5,766.6328 L2010.2544,766.6328 A0,0 0 0 0 2010.2544,766.6328 L2010.2544,751.5 L2000.2544,741.5 L1646.5,741.5 A0,0 0 0 0 1646.5,741.5 " fill="#FEFFDD" style="stroke:#181818;stroke-width:0.5;"/><path d="M2000.2544,741.5 L2000.2544,751.5 L2010.2544,751.5 L2000.2544,741.5 " fill="#FEFFDD" style="stroke:#181818;stroke-width:0.5;"/><text fill="#000000" font-family="sans-serif" font-size="13" lengthAdjust="spacing" textLength="342.7544" x="1652.5" y="758.5669">Store logs for each function that has been optimized</text><g id="elem_GMN24"><path d="M1097.5,746.5 L1097.5,755 L1062.31,759 L1097.5,763 L1097.5,771.6328 A0,0 0 0 0 1097.5,771.6328 L1611.2813,771.6328 A0,0 0 0 0 1611.2813,771.6328 L1611.2813,756.5 L1601.2813,746.5 L1097.5,746.5 A0,0 0 0 0 1097.5,746.5 " fill="#FEFFDD" style="stroke:#181818;stroke-width:0.5;"/><path d="M1601.2813,746.5 L1601.2813,756.5 L1611.2813,756.5 L1601.2813,746.5 " fill="#FEFFDD" style="stroke:#181818;stroke-width:0.5;"/><text fill="#000000" font-family="sans-serif" font-size="13" lengthAdjust="spacing" textLength="492.7813" x="1103.5" y="763.5669">Class for finding the minimum of a function using the Nelder-Mead method.</text></g><g id="elem_GMN27"><path d="M921.5,238.5 L921.5,247 L886.79,251 L921.5,255 L921.5,263.6328 A0,0 0 0 0 921.5,263.6328 L1303.7642,263.6328 A0,0 0 0 0 1303.7642,263.6328 L1303.7642,248.5 L1293.7642,238.5 L921.5,238.5 A0,0 0 0 0 921.5,238.5 " fill="#FEFFDD" style="stroke:#181818;stroke-width:0.5;"/><path d="M1293.7642,238.5 L1293.7642,248.5 L1303.7642,248.5 L1293.7642,238.5 " fill="#FEFFDD" style="stroke:#181818;stroke-width:0.5;"/><text fill="#000000" font-family="sans-serif" font-size="13" lengthAdjust="spacing" textLength="361.2642" x="927.5" y="255.5669">Class for UI interaction, optimization, and logs handling</text></g><g id="elem_GMN30"><path d="M978,1067 L978,1075.5 L942.79,1079.5 L978,1083.5 L978,1092.1328 A0,0 0 0 0 978,1092.1328 L1204.7021,1092.1328 A0,0 0 0 0 1204.7021,1092.1328 L1204.7021,1077 L1194.7021,1067 L978,1067 A0,0 0 0 0 978,1067 " fill="#FEFFDD" style="stroke:#181818;stroke-width:0.5;"/><path d="M1194.7021,1067 L1194.7021,1077 L1204.7021,1077 L1194.7021,1067 " fill="#FEFFDD" style="stroke:#181818;stroke-width:0.5;"/><text fill="#000000" font-family="sans-serif" font-size="13" lengthAdjust="spacing" textLength="205.7021" x="984" y="1084.0669">Class for expression calculation</text></g><!--link NelderMeadSolver to Log--><g id="link_NelderMeadSolver_Log"><path codeLine="119" d="M450.29,946.19 C408.22,977.5 368.07,1007.38 336.6,1030.8 " fill="transparent" id="NelderMeadSolver-Log" style="stroke:#181818;stroke-width:1;"/><text fill="#000000" font-family="sans-serif" font-size="13" lengthAdjust="spacing" textLength="55.0278" x="400.5" y="989.0669">contains</text><text fill="#000000" font-family="sans-serif" font-size="13" lengthAdjust="spacing" textLength="8.271" x="432.3679" y="965.8658">1</text><text fill="#000000" font-family="sans-serif" font-size="13" lengthAdjust="spacing" textLength="23.0356" x="320.9716" y="1019.9808">0..*</text></g><!--link NelderMeadSolver to Function--><g id="link_NelderMeadSolver_Function"><path codeLine="120" d="M754.87,946.19 C763.02,974.1 770.83,1000.87 777.28,1022.94 " fill="transparent" id="NelderMeadSolver-Function" style="stroke:#181818;stroke-width:1;"/><text fill="#000000" font-family="sans-serif" font-size="13" lengthAdjust="spacing" textLength="29.7832" x="766.5" y="989.0669">uses</text><text fill="#000000" font-family="sans-serif" font-size="13" lengthAdjust="spacing" textLength="8.271" x="748.8456" y="965.8658">1</text><text fill="#000000" font-family="sans-serif" font-size="13" lengthAdjust="spacing" textLength="8.271" x="766.7298" y="1011.7957">1</text></g><!--link NelderMeadSolver to Point--><g id="link_NelderMeadSolver_Point"><path codeLine="121" d="M1062.12,937.98 C1149.67,981.9 1219.41,1017.98 1222.5,1023 C1248.84,1065.76 1251.06,1094.69 1222.5,1136 C1167.39,1215.71 1102.84,1165.26 1018.5,1213 C1012.43,1216.44 1006.35,1220.03 1000.29,1223.75 " fill="transparent" id="NelderMeadSolver-Point" style="stroke:#181818;stroke-width:1;"/><text fill="#000000" font-family="sans-serif" font-size="13" lengthAdjust="spacing" textLength="29.7832" x="1243.5" y="1084.0669">uses</text><text fill="#000000" font-family="sans-serif" font-size="13" lengthAdjust="spacing" textLength="8.271" x="1069.5508" y="938.5321">1</text><text fill="#000000" font-family="sans-serif" font-size="13" lengthAdjust="spacing" textLength="23.0356" x="1008.1276" y="1214.5097">1..*</text></g><!--link Function to Point--><g id="link_Function_Point"><path codeLine="122" d="M793.5,1136.01 C793.5,1158.16 793.5,1185.02 793.5,1212.87 " fill="transparent" id="Function-Point" style="stroke:#181818;stroke-width:1;"/><text fill="#000000" font-family="sans-serif" font-size="13" lengthAdjust="spacing" textLength="29.7832" x="794.5" y="1179.0669">uses</text><text fill="#000000" font-family="sans-serif" font-size="13" lengthAdjust="spacing" textLength="8.271" x="785.0279" y="1156.2747">1</text><text fill="#000000" font-family="sans-serif" font-size="13" lengthAdjust="spacing" textLength="8.271" x="785.3278" y="1202.0738">1</text></g><!--link AppUI to NelderMeadSolver--><g id="link_AppUI_NelderMeadSolver"><path codeLine="123" d="M700.5,495.37 C700.5,521.06 700.5,546.89 700.5,571.8 " fill="transparent" id="AppUI-NelderMeadSolver" style="stroke:#181818;stroke-width:1;"/><text fill="#000000" font-family="sans-serif" font-size="13" lengthAdjust="spacing" textLength="29.7832" x="701.5" y="538.0669">uses</text><text fill="#000000" font-family="sans-serif" font-size="13" lengthAdjust="spacing" textLength="8.271" x="692.3902" y="514.916">1</text><text fill="#000000" font-family="sans-serif" font-size="13" lengthAdjust="spacing" textLength="8.271" x="692.3399" y="560.6571">1</text></g><!--link AppUI to Point--><g id="link_AppUI_Point"><path codeLine="124" d="M514.28,334.89 C415.33,388.49 300.42,467.79 232.5,572 C94.12,784.32 6,926.43 148.5,1136 C245.91,1279.26 437.56,1342.04 586.75,1369.55 " fill="transparent" id="AppUI-Point" style="stroke:#181818;stroke-width:1;"/><text fill="#000000" font-family="sans-serif" font-size="13" lengthAdjust="spacing" textLength="29.7832" x="83.5" y="989.0669">uses</text><text fill="#000000" font-family="sans-serif" font-size="13" lengthAdjust="spacing" textLength="8.271" x="498.2679" y="335.1821">1</text><text fill="#000000" font-family="sans-serif" font-size="13" lengthAdjust="spacing" textLength="8.271" x="570.5144" y="1365.4566">1</text></g><!--link AppUI to Log--><g id="link_AppUI_Log"><path codeLine="125" d="M514.27,347.63 C430.2,401.37 339.03,476.89 290.5,572 C212.82,724.25 242.66,937.07 261.58,1030.88 " fill="transparent" id="AppUI-Log" style="stroke:#181818;stroke-width:1;"/><text fill="#000000" font-family="sans-serif" font-size="13" lengthAdjust="spacing" textLength="29.7832" x="291.5" y="763.5669">uses</text><text fill="#000000" font-family="sans-serif" font-size="13" lengthAdjust="spacing" textLength="8.271" x="498.2574" y="348.4595">1</text><text fill="#000000" font-family="sans-serif" font-size="13" lengthAdjust="spacing" textLength="23.0356" x="235.4019" y="1020.072">0..*</text></g><!--link AppUI to stringResources--><g id="link_AppUI_stringResources"><path codeLine="126" d="M886.78,485.07 C892.58,488.62 898.49,491.94 904.5,495 C1350.84,721.96 1580.12,349.11 2028.5,572 C2049.21,582.29 2068.39,596.52 2085.76,612.56 " fill="transparent" id="AppUI-stringResources" style="stroke:#181818;stroke-width:1;"/><text fill="#000000" font-family="sans-serif" font-size="13" lengthAdjust="spacing" textLength="29.7832" x="1950.5" y="538.0669">uses</text><text fill="#000000" font-family="sans-serif" font-size="13" lengthAdjust="spacing" textLength="8.271" x="894.2246" y="490.9896">1</text><text fill="#000000" font-family="sans-serif" font-size="13" lengthAdjust="spacing" textLength="8.271" x="2072.5004" y="602.1627">1</text></g><!--link AppUI to windowSetup--><g id="link_AppUI_windowSetup"><path codeLine="127" d="M886.62,485.4 C892.46,488.85 898.42,492.06 904.5,495 C958.75,521.21 1928.44,520.31 1988.5,525 C2151.57,537.72 2213.43,487.54 2353.5,572 C2391.55,594.95 2421.46,633.64 2443.03,669.82 " fill="transparent" id="AppUI-windowSetup" style="stroke:#181818;stroke-width:1;"/><text fill="#000000" font-family="sans-serif" font-size="13" lengthAdjust="spacing" textLength="29.7832" x="2292.5" y="538.0669">uses</text><text fill="#000000" font-family="sans-serif" font-size="13" lengthAdjust="spacing" textLength="8.271" x="894.0584" y="506.9184">1</text><text fill="#000000" font-family="sans-serif" font-size="13" lengthAdjust="spacing" textLength="8.271" x="2431.2839" y="658.8706">1</text></g><!--SRC=[fLVVRzis47xtNq7a8L1YEqW631Y49K3dDaE0TXdcT7ie2e6Hw8YeH0eabMGhbh-znwCeKRBe8kXJdFi-tkyxaNb5jIP_IYuC-ReWP4qAQcYM4csAD7rakP7grqAsznMx0dZfg4d1QoOqbq83a__7CdCIeg0Y9JcWPaxFyJuNMLnmmsa5wbHMSMrw_kY0D2LJNZkAvc07T8XicABWmENiOK-Uftf58zQBi-MqRy7XvCJdOQJbq-U45yzzYfpTbBYu3Z4zP-pKyXK1h5_1FRrCSibstkWyQPbKR6V6wbP4yOVIpDiOk_D3fq-Jnigcn-USdfmBAIioewK_z_zYaUCml9SFE0fBHzVZMK2o6uMQKTqgDghdhXLvzaYhNjYhlGR4mCIWRZjexBbHJDiXykEcZUBYeOF1tgqDGnIJQGoeLyXTzhgJGUT8vKd7sz0gRojgcCzdduEfjt-mgc3g0wF5LbQFJ7NBWJKw2-Ar0fcNMT3yQqY-uJNyMsIxpYtj8wXf4xg_SbASTSZwrTMYomiLcIrSvaiL6DIb4b-Yg6AxYaNHje5jmpBDwwPYppqZ6Dnfs0a4xECbb-JYdAr_NhcWVSmeFdUhuBOBFV6HZxQW2_hOHasLoUQRCUYbZMo5USlhWzh6Y-TtPY2H-hidHcd7an1eChUWK3vUHnZ-G0xCTuYN7MFMRTDjc32mrPCkzIEtwhQ2h45d-2br8nPkWZK49kn8isrNE_i5ycOc2SL3Avp4j9-CFkg8DJJIAR-JV-EalThTsJsnXeMIqsfRGlA_PCd4BV3TspYe7POTfd2lNnubBro6Add_msQymduFk9xvYsdPgfpfhulbH0BLnXFBbnZmmCm7oiK_NDnnK-6dqiMGbrIT8hwrzKCNxjYpcMFSYAQDWdxiVckDaIB6sbICgiCKEpk76Ljc34Jv7TPRjgEGuNujpmLaR3_RvHXLukzOCS8ReP-OYg7l6Xs7O4pdmBxiJrmKyWc2RHltBGm4xjhpiYVHzcTNQK2IeJaTX2MCOBUjYOC-vn7O5Yrsqlph6cxSr6-QvkED-w9b6lTykhVv4LJmBokkXsKAMVfqyTCldn7bDg0OMBWMsE9Gf5r-qM3Vwy5-ooe8OcOlhxC6pWT6xgMiKEw_iZCG7kbQC13h4ik5gPo8tykHY69ZXT_vZ2abGRAh97KEyxv_K-A3s7yLB6mfCDt9N49E1jWrLV3RlWQk5QsPNoIsgE3hJTWe8J3feH3Qwo0FSlsklp5jf5AmkwDtg251c63t19Z_YFkbRFidN09UFYrUYELsJUq1qBjxLxAZYoEoNfEZyxEpqoEyjg8Z1aPGnzdmfx-AfgJLx10NDRlNOSVjpmRwHWGtN04wrHxZTJCn0_O1nevEFZqnMh2oEif2ICFSCuJ87Pf8tQqVRypk7c0H9uHEzn_I1HC5iQUdEbmOAJwZKSaML31Du346rP6gu0BkCTfIhGWL3yh6klPIbyvThWShnAuHiWEN6SrBuYbWY1fIKatk6HF31JqQmymo96I3kzCgtq4U8T_eVmrpMhUrFKK7Wwtsk5ErjhhWmMHAMPn5pMB19hQWWjnUV2WgNdddgViFNaSkvX9-LVRn5DFj-tQYVXXsadUF8qloMhu1]--></g></svg>