<svg xmlns="http://www.w3.org/2000/svg" xmlns:xlink="http://www.w3.org/1999/xlink" contentStyleType="text/css" data-diagram-type="CLASS" height="1496px" preserveAspectRatio="none" style="width:2637px;height:1496px;background:#FFFFFF;" version="1.1" viewBox="0 0 2637 1496" width="2637px" zoomAndPan="magnify"><defs/><g><!--class Point--><g class="entity" data-entity="Point" data-source-line="1" data-uid="ent0002" id="entity_Point"><rect fill="#F1F1F1" height="276.1563" rx="2.5" ry="2.5" style="stroke:#181818;stroke-width:0.5;" width="413.4336" x="490.83" y="1213.14"/><ellipse cx="675.6669" cy="1229.14" fill="#ADD1B2" rx="11" ry="11" style="stroke:#181818;stroke-width:1;"/><path d="M678.6357,1234.7806 Q678.0575,1235.0775 677.4169,1235.2181 Q676.7763,1235.3744 676.0732,1235.3744 Q673.5732,1235.3744 672.245,1233.7337 Q670.9325,1232.0775 670.9325,1228.9525 Q670.9325,1225.8275 672.245,1224.1712 Q673.5732,1222.515 676.0732,1222.515 Q676.7763,1222.515 677.4169,1222.6712 Q678.0732,1222.8275 678.6357,1223.1244 L678.6357,1225.8431 Q678.0107,1225.265 677.4169,1224.9994 Q676.8232,1224.7181 676.1982,1224.7181 Q674.8544,1224.7181 674.1669,1225.7962 Q673.4794,1226.8587 673.4794,1228.9525 Q673.4794,1231.0462 674.1669,1232.1244 Q674.8544,1233.1869 676.1982,1233.1869 Q676.8232,1233.1869 677.4169,1232.9212 Q678.0107,1232.64 678.6357,1232.0619 L678.6357,1234.7806 Z " fill="#000000"/><text fill="#000000" font-family="sans-serif" font-size="14" lengthAdjust="spacing" textLength="35.2598" x="696.1669" y="1233.9867">Point</text><line style="stroke:#181818;stroke-width:0.5;" x1="491.83" x2="903.2636" y1="1245.14" y2="1245.14"/><rect fill="none" height="6" style="stroke:#C82930;stroke-width:1;" width="6" x="498.83" y="1255.7884"/><text fill="#000000" font-family="sans-serif" font-size="14" lengthAdjust="spacing" textLength="194.3867" x="510.83" y="1262.1351">data_: std::vector&lt;double&gt;</text><line style="stroke:#181818;stroke-width:0.5;" x1="491.83" x2="903.2636" y1="1269.4369" y2="1269.4369"/><ellipse cx="501.83" cy="1283.0853" fill="#84BE84" rx="3" ry="3" style="stroke:#038048;stroke-width:1;"/><text fill="#000000" font-family="sans-serif" font-size="14" lengthAdjust="spacing" textLength="174.8018" x="510.83" y="1286.432">Point(dimensions: size_t)</text><ellipse cx="501.83" cy="1299.3822" fill="#84BE84" rx="3" ry="3" style="stroke:#038048;stroke-width:1;"/><text fill="#000000" font-family="sans-serif" font-size="14" lengthAdjust="spacing" textLength="286.8564" x="510.83" y="1302.7289">Point(data: const std::vector&lt;double&gt;&amp;)</text><ellipse cx="501.83" cy="1315.6791" fill="#84BE84" rx="3" ry="3" style="stroke:#038048;stroke-width:1;"/><text fill="#000000" font-family="sans-serif" font-size="14" lengthAdjust="spacing" textLength="302.668" x="510.83" y="1319.0257">Point(data: std::initializer_list&lt;double&gt;&amp;&amp;)</text><ellipse cx="501.83" cy="1331.9759" fill="#84BE84" rx="3" ry="3" style="stroke:#038048;stroke-width:1;"/><text fill="#000000" font-family="sans-serif" font-size="14" lengthAdjust="spacing" textLength="88.4639" x="510.83" y="1335.3226">Size(): size_t</text><ellipse cx="501.83" cy="1348.2728" fill="#84BE84" rx="3" ry="3" style="stroke:#038048;stroke-width:1;"/><text fill="#000000" font-family="sans-serif" font-size="14" lengthAdjust="spacing" textLength="251.1729" x="510.83" y="1351.6195">operator[](idx: size_t) const: double</text><ellipse cx="501.83" cy="1364.5697" fill="#84BE84" rx="3" ry="3" style="stroke:#038048;stroke-width:1;"/><text fill="#000000" font-family="sans-serif" font-size="14" lengthAdjust="spacing" textLength="219.7207" x="510.83" y="1367.9164">operator[](idx: size_t): double&amp;</text><ellipse cx="501.83" cy="1380.8666" fill="#84BE84" rx="3" ry="3" style="stroke:#038048;stroke-width:1;"/><text fill="#000000" font-family="sans-serif" font-size="14" lengthAdjust="spacing" textLength="284.9492" x="510.83" y="1384.2132">operator+=(other: const Point&amp;): Point&amp;</text><ellipse cx="501.83" cy="1397.1634" fill="#84BE84" rx="3" ry="3" style="stroke:#038048;stroke-width:1;"/><text fill="#000000" font-family="sans-serif" font-size="14" lengthAdjust="spacing" textLength="278.2705" x="510.83" y="1400.5101">operator-=(other: const Point&amp;): Point&amp;</text><ellipse cx="501.83" cy="1413.4603" fill="#84BE84" rx="3" ry="3" style="stroke:#038048;stroke-width:1;"/><text fill="#000000" font-family="sans-serif" font-size="14" lengthAdjust="spacing" textLength="231.8955" x="510.83" y="1416.807">operator*=(coef: double): Point&amp;</text><ellipse cx="501.83" cy="1429.7572" fill="#84BE84" rx="3" ry="3" style="stroke:#038048;stroke-width:1;"/><text fill="#000000" font-family="sans-serif" font-size="14" lengthAdjust="spacing" textLength="387.4336" x="510.83" y="1433.1039">operator+(left: const Point&amp;, right: const Point&amp;): Point</text><ellipse cx="501.83" cy="1446.0541" fill="#84BE84" rx="3" ry="3" style="stroke:#038048;stroke-width:1;"/><text fill="#000000" font-family="sans-serif" font-size="14" lengthAdjust="spacing" textLength="380.7549" x="510.83" y="1449.4007">operator-(left: const Point&amp;, right: const Point&amp;): Point</text><ellipse cx="501.83" cy="1462.3509" fill="#84BE84" rx="3" ry="3" style="stroke:#038048;stroke-width:1;"/><text fill="#000000" font-family="sans-serif" font-size="14" lengthAdjust="spacing" textLength="351.5654" x="510.83" y="1465.6976">operator*(point: const Point&amp;, coef: double): Point</text><ellipse cx="501.83" cy="1478.6478" fill="#84BE84" rx="3" ry="3" style="stroke:#038048;stroke-width:1;"/><text fill="#000000" font-family="sans-serif" font-size="14" lengthAdjust="spacing" textLength="351.5654" x="510.83" y="1481.9945">operator*(coef: double, point: const Point&amp;): Point</text></g><!--class Log--><g class="entity" data-entity="Log" data-source-line="18" data-uid="ent0003" id="entity_Log"><rect fill="#F1F1F1" height="96.8906" rx="2.5" ry="2.5" style="stroke:#181818;stroke-width:0.5;" width="212.3955" x="185.35" y="1031.1"/><ellipse cx="274.6718" cy="1047.1" fill="#ADD1B2" rx="11" ry="11" style="stroke:#181818;stroke-width:1;"/><path d="M277.6405,1052.7406 Q277.0624,1053.0375 276.4218,1053.1781 Q275.7812,1053.3344 275.078,1053.3344 Q272.578,1053.3344 271.2499,1051.6938 Q269.9374,1050.0375 269.9374,1046.9125 Q269.9374,1043.7875 271.2499,1042.1313 Q272.578,1040.475 275.078,1040.475 Q275.7812,1040.475 276.4218,1040.6313 Q277.078,1040.7875 277.6405,1041.0844 L277.6405,1043.8031 Q277.0155,1043.225 276.4218,1042.9594 Q275.828,1042.6781 275.203,1042.6781 Q273.8593,1042.6781 273.1718,1043.7563 Q272.4843,1044.8188 272.4843,1046.9125 Q272.4843,1049.0063 273.1718,1050.0844 Q273.8593,1051.1469 275.203,1051.1469 Q275.828,1051.1469 276.4218,1050.8813 Q277.0155,1050.6 277.6405,1050.0219 L277.6405,1052.7406 Z " fill="#000000"/><text fill="#000000" font-family="sans-serif" font-size="14" lengthAdjust="spacing" textLength="25.252" x="295.1718" y="1051.9467">Log</text><line style="stroke:#181818;stroke-width:0.5;" x1="186.35" x2="396.7455" y1="1063.1" y2="1063.1"/><ellipse cx="196.35" cy="1076.7484" fill="none" rx="3" ry="3" style="stroke:#038048;stroke-width:1;"/><text fill="#000000" font-family="sans-serif" font-size="14" lengthAdjust="spacing" textLength="186.3955" x="205.35" y="1080.0951">points: std::vector&lt;Point&gt;</text><ellipse cx="196.35" cy="1093.0453" fill="none" rx="3" ry="3" style="stroke:#038048;stroke-width:1;"/><text fill="#000000" font-family="sans-serif" font-size="14" lengthAdjust="spacing" textLength="118.248" x="205.35" y="1096.392">measure: double</text><ellipse cx="196.35" cy="1109.3422" fill="none" rx="3" ry="3" style="stroke:#038048;stroke-width:1;"/><text fill="#000000" font-family="sans-serif" font-size="14" lengthAdjust="spacing" textLength="115.0078" x="205.35" y="1112.6889">func_val: double</text><line style="stroke:#181818;stroke-width:0.5;" x1="186.35" x2="396.7455" y1="1119.9906" y2="1119.9906"/></g><!--class Function--><g class="entity" data-entity="Function" data-source-line="24" data-uid="ent0004" id="entity_Function"><rect fill="#F1F1F1" height="113.1875" rx="2.5" ry="2.5" style="stroke:#181818;stroke-width:0.5;" width="297.6396" x="763.72" y="1022.96"/><ellipse cx="878.1331" cy="1038.96" fill="#ADD1B2" rx="11" ry="11" style="stroke:#181818;stroke-width:1;"/><path d="M881.1018,1044.6006 Q880.5237,1044.8975 879.8831,1045.0381 Q879.2425,1045.1944 878.5393,1045.1944 Q876.0393,1045.1944 874.7112,1043.5538 Q873.3987,1041.8975 873.3987,1038.7725 Q873.3987,1035.6475 874.7112,1033.9913 Q876.0393,1032.335 878.5393,1032.335 Q879.2425,1032.335 879.8831,1032.4913 Q880.5393,1032.6475 881.1018,1032.9444 L881.1018,1035.6631 Q880.4768,1035.085 879.8831,1034.8194 Q879.2893,1034.5381 878.6643,1034.5381 Q877.3206,1034.5381 876.6331,1035.6163 Q875.9456,1036.6788 875.9456,1038.7725 Q875.9456,1040.8663 876.6331,1041.9444 Q877.3206,1043.0069 878.6643,1043.0069 Q879.2893,1043.0069 879.8831,1042.7413 Q880.4768,1042.46 881.1018,1041.8819 L881.1018,1044.6006 Z " fill="#000000"/><text fill="#000000" font-family="sans-serif" font-size="14" lengthAdjust="spacing" textLength="60.3135" x="898.6331" y="1043.8067">Function</text><line style="stroke:#181818;stroke-width:0.5;" x1="764.72" x2="1060.3596" y1="1054.96" y2="1054.96"/><rect fill="none" height="6" style="stroke:#C82930;stroke-width:1;" width="6" x="771.72" y="1065.6084"/><text fill="#000000" font-family="sans-serif" font-size="14" lengthAdjust="spacing" textLength="163.5293" x="783.72" y="1071.9551">expression_: std::string</text><rect fill="none" height="6" style="stroke:#C82930;stroke-width:1;" width="6" x="771.72" y="1081.9053"/><text fill="#000000" font-family="sans-serif" font-size="14" lengthAdjust="spacing" textLength="271.6396" x="783.72" y="1088.252">vecOperand_: std::vector&lt;std::string&gt;</text><line style="stroke:#181818;stroke-width:0.5;" x1="764.72" x2="1060.3596" y1="1095.5538" y2="1095.5538"/><ellipse cx="774.72" cy="1109.2022" fill="#84BE84" rx="3" ry="3" style="stroke:#038048;stroke-width:1;"/><text fill="#000000" font-family="sans-serif" font-size="14" lengthAdjust="spacing" textLength="227.7666" x="783.72" y="1112.5489">Function(expression: std::string)</text><ellipse cx="774.72" cy="1125.4991" fill="#84BE84" rx="3" ry="3" style="stroke:#038048;stroke-width:1;"/><text fill="#000000" font-family="sans-serif" font-size="14" lengthAdjust="spacing" textLength="224.2393" x="783.72" y="1128.8457">Calculate(point: Point&amp;): double</text></g><!--class NelderMeadSolver--><g class="entity" data-entity="NelderMeadSolver" data-source-line="31" data-uid="ent0005" id="entity_NelderMeadSolver"><rect fill="#F1F1F1" height="373.9375" rx="2.5" ry="2.5" style="stroke:#181818;stroke-width:0.5;" width="722.8623" x="260.11" y="531.28"/><ellipse cx="553.0983" cy="547.28" fill="#ADD1B2" rx="11" ry="11" style="stroke:#181818;stroke-width:1;"/><path d="M556.067,552.9206 Q555.4889,553.2175 554.8483,553.3581 Q554.2077,553.5144 553.5045,553.5144 Q551.0045,553.5144 549.6764,551.8738 Q548.3639,550.2175 548.3639,547.0925 Q548.3639,543.9675 549.6764,542.3113 Q551.0045,540.655 553.5045,540.655 Q554.2077,540.655 554.8483,540.8113 Q555.5045,540.9675 556.067,541.2644 L556.067,543.9831 Q555.442,543.405 554.8483,543.1394 Q554.2545,542.8581 553.6295,542.8581 Q552.2858,542.8581 551.5983,543.9363 Q550.9108,544.9988 550.9108,547.0925 Q550.9108,549.1863 551.5983,550.2644 Q552.2858,551.3269 553.6295,551.3269 Q554.2545,551.3269 554.8483,551.0613 Q555.442,550.78 556.067,550.2019 L556.067,552.9206 Z " fill="#000000"/><text fill="#000000" font-family="sans-serif" font-size="14" lengthAdjust="spacing" textLength="128.3857" x="573.5983" y="552.1267">NelderMeadSolver</text><line style="stroke:#181818;stroke-width:0.5;" x1="261.11" x2="981.9723" y1="563.28" y2="563.28"/><rect fill="none" height="6" style="stroke:#C82930;stroke-width:1;" width="6" x="268.11" y="573.9284"/><text fill="#000000" font-family="sans-serif" font-size="14" lengthAdjust="spacing" textLength="88.6758" x="280.11" y="580.2751">eps_: double</text><rect fill="none" height="6" style="stroke:#C82930;stroke-width:1;" width="6" x="268.11" y="590.2253"/><text fill="#000000" font-family="sans-serif" font-size="14" lengthAdjust="spacing" textLength="98.4375" x="280.11" y="596.572">epoch_: size_t</text><rect fill="none" height="6" style="stroke:#C82930;stroke-width:1;" width="6" x="268.11" y="606.5222"/><text fill="#000000" font-family="sans-serif" font-size="14" lengthAdjust="spacing" textLength="423.0967" x="280.11" y="612.8689">optimized_functions_: std::map&lt;std::string, std::list&lt;Log&gt;&gt;</text><rect fill="none" height="6" style="stroke:#C82930;stroke-width:1;" width="6" x="268.11" y="622.8191"/><text fill="#000000" font-family="sans-serif" font-size="14" lengthAdjust="spacing" textLength="186.293" x="280.11" y="629.1657">expan_coef_: const double</text><rect fill="none" height="6" style="stroke:#C82930;stroke-width:1;" width="6" x="268.11" y="639.1159"/><text fill="#000000" font-family="sans-serif" font-size="14" lengthAdjust="spacing" textLength="181.959" x="280.11" y="645.4626">shrnk_coef_: const double</text><rect fill="none" height="6" style="stroke:#C82930;stroke-width:1;" width="6" x="268.11" y="655.4128"/><text fill="#000000" font-family="sans-serif" font-size="14" lengthAdjust="spacing" textLength="174.8564" x="280.11" y="661.7595">refle_coef_: const double</text><rect fill="none" height="6" style="stroke:#C82930;stroke-width:1;" width="6" x="268.11" y="671.7097"/><text fill="#000000" font-family="sans-serif" font-size="14" lengthAdjust="spacing" textLength="208.9951" x="280.11" y="678.0564">update_simplex_: const size_t</text><line style="stroke:#181818;stroke-width:0.5;" x1="261.11" x2="981.9723" y1="685.3581" y2="685.3581"/><ellipse cx="271.11" cy="699.0066" fill="#84BE84" rx="3" ry="3" style="stroke:#038048;stroke-width:1;"/><text fill="#000000" font-family="sans-serif" font-size="14" lengthAdjust="spacing" textLength="429.6934" x="280.11" y="702.3532">NelderMeadSolver(eps: double = 10e-5, epoch: size_t = 100)</text><ellipse cx="271.11" cy="715.3034" fill="#84BE84" rx="3" ry="3" style="stroke:#038048;stroke-width:1;"/><text fill="#000000" font-family="sans-serif" font-size="14" lengthAdjust="spacing" textLength="503.4395" x="280.11" y="718.6501">Optimize(function: const std::string&amp;, start_point: const Point&amp;): double</text><ellipse cx="271.11" cy="731.6003" fill="#84BE84" rx="3" ry="3" style="stroke:#038048;stroke-width:1;"/><text fill="#000000" font-family="sans-serif" font-size="14" lengthAdjust="spacing" textLength="320.5439" x="280.11" y="734.947">CountDim(function: const std::string&amp;): size_t</text><ellipse cx="271.11" cy="747.8972" fill="#84BE84" rx="3" ry="3" style="stroke:#038048;stroke-width:1;"/><text fill="#000000" font-family="sans-serif" font-size="14" lengthAdjust="spacing" textLength="368.9014" x="280.11" y="751.2439">GetLogs(function: const std::string&amp;): std::list&lt;Log&gt;</text><ellipse cx="271.11" cy="764.1941" fill="#84BE84" rx="3" ry="3" style="stroke:#038048;stroke-width:1;"/><text fill="#000000" font-family="sans-serif" font-size="14" lengthAdjust="spacing" textLength="134.9688" x="280.11" y="767.5407">eps() const: double</text><ellipse cx="271.11" cy="780.4909" fill="#84BE84" rx="3" ry="3" style="stroke:#038048;stroke-width:1;"/><text fill="#000000" font-family="sans-serif" font-size="14" lengthAdjust="spacing" textLength="103.5166" x="280.11" y="783.8376">eps(): double&amp;</text><ellipse cx="271.11" cy="796.7878" fill="#84BE84" rx="3" ry="3" style="stroke:#038048;stroke-width:1;"/><text fill="#000000" font-family="sans-serif" font-size="14" lengthAdjust="spacing" textLength="144.7305" x="280.11" y="800.1345">epoch() const: size_t</text><ellipse cx="271.11" cy="813.0847" fill="#84BE84" rx="3" ry="3" style="stroke:#038048;stroke-width:1;"/><text fill="#000000" font-family="sans-serif" font-size="14" lengthAdjust="spacing" textLength="113.2783" x="280.11" y="816.4314">epoch(): size_t&amp;</text><rect fill="#F24D5C" height="6" style="stroke:#C82930;stroke-width:1;" width="6" x="268.11" y="826.3816"/><text fill="#000000" font-family="sans-serif" font-size="14" lengthAdjust="spacing" textLength="469.6836" x="280.11" y="832.7282">CalcCenter_(simplex: const std::multimap&lt;double, Point&gt;&amp;): Point</text><rect fill="#F24D5C" height="6" style="stroke:#C82930;stroke-width:1;" width="6" x="268.11" y="842.6784"/><text fill="#000000" font-family="sans-serif" font-size="14" lengthAdjust="spacing" textLength="685.4121" x="280.11" y="849.0251">GenerateSimplex_(dim: size_t, start_point: Point, func: Function&amp;): std::multimap&lt;double, Point&gt;</text><rect fill="#F24D5C" height="6" style="stroke:#C82930;stroke-width:1;" width="6" x="268.11" y="858.9753"/><text fill="#000000" font-family="sans-serif" font-size="14" lengthAdjust="spacing" textLength="610.4971" x="280.11" y="865.322">SimplexToVector_(simplex: const std::multimap&lt;double, Point&gt;&amp;): std::vector&lt;Point&gt;</text><rect fill="#F24D5C" height="6" style="stroke:#C82930;stroke-width:1;" width="6" x="268.11" y="875.2722"/><text fill="#000000" font-family="sans-serif" font-size="14" lengthAdjust="spacing" textLength="696.8623" x="280.11" y="881.6189">LocalShrink_(func: Function&amp;, simplex: std::multimap&lt;double, Point&gt;&amp;, center: const Point&amp;): void</text><rect fill="#F24D5C" height="6" style="stroke:#C82930;stroke-width:1;" width="6" x="268.11" y="891.5691"/><text fill="#000000" font-family="sans-serif" font-size="14" lengthAdjust="spacing" textLength="553.335" x="280.11" y="897.9157">GlobalShrink_(func: Function&amp;, simplex: std::multimap&lt;double, Point&gt;&amp;): void</text></g><!--class AppUI--><g class="entity" data-entity="AppUI" data-source-line="54" data-uid="ent0006" id="entity_AppUI"><rect fill="#F1F1F1" height="406.5313" rx="2.5" ry="2.5" style="stroke:#181818;stroke-width:0.5;" width="334.376" x="1570.36" y="7"/><ellipse cx="1712.4347" cy="23" fill="#ADD1B2" rx="11" ry="11" style="stroke:#181818;stroke-width:1;"/><path d="M1715.4035,28.6406 Q1714.8253,28.9375 1714.1847,29.0781 Q1713.5441,29.2344 1712.841,29.2344 Q1710.341,29.2344 1709.0128,27.5938 Q1707.7003,25.9375 1707.7003,22.8125 Q1707.7003,19.6875 1709.0128,18.0313 Q1710.341,16.375 1712.841,16.375 Q1713.5441,16.375 1714.1847,16.5313 Q1714.841,16.6875 1715.4035,16.9844 L1715.4035,19.7031 Q1714.7785,19.125 1714.1847,18.8594 Q1713.591,18.5781 1712.966,18.5781 Q1711.6222,18.5781 1710.9347,19.6563 Q1710.2472,20.7188 1710.2472,22.8125 Q1710.2472,24.9063 1710.9347,25.9844 Q1711.6222,27.0469 1712.966,27.0469 Q1713.591,27.0469 1714.1847,26.7813 Q1714.7785,26.5 1715.4035,25.9219 L1715.4035,28.6406 Z " fill="#000000"/><text fill="#000000" font-family="sans-serif" font-size="14" lengthAdjust="spacing" textLength="41.7266" x="1732.9347" y="27.8467">AppUI</text><line style="stroke:#181818;stroke-width:0.5;" x1="1571.36" x2="1903.736" y1="39" y2="39"/><rect fill="none" height="6" style="stroke:#C82930;stroke-width:1;" width="6" x="1578.36" y="49.6484"/><text fill="#000000" font-family="sans-serif" font-size="14" lengthAdjust="spacing" textLength="186.9561" x="1590.36" y="55.9951">solver_: NelderMeadSolver</text><rect fill="none" height="6" style="stroke:#C82930;stroke-width:1;" width="6" x="1578.36" y="65.9453"/><text fill="#000000" font-family="sans-serif" font-size="14" lengthAdjust="spacing" textLength="198.2422" x="1590.36" y="72.292">readed_function_: char[128]</text><rect fill="none" height="6" style="stroke:#C82930;stroke-width:1;" width="6" x="1578.36" y="82.2422"/><text fill="#000000" font-family="sans-serif" font-size="14" lengthAdjust="spacing" textLength="184.9189" x="1590.36" y="88.5889">input_function_: char[128]</text><rect fill="none" height="6" style="stroke:#C82930;stroke-width:1;" width="6" x="1578.36" y="98.5391"/><text fill="#000000" font-family="sans-serif" font-size="14" lengthAdjust="spacing" textLength="126.7383" x="1590.36" y="104.8857">start_point_: Point</text><rect fill="none" height="6" style="stroke:#C82930;stroke-width:1;" width="6" x="1578.36" y="114.8359"/><text fill="#000000" font-family="sans-serif" font-size="14" lengthAdjust="spacing" textLength="143.1582" x="1590.36" y="121.1826">print_function_: bool</text><rect fill="none" height="6" style="stroke:#C82930;stroke-width:1;" width="6" x="1578.36" y="131.1328"/><text fill="#000000" font-family="sans-serif" font-size="14" lengthAdjust="spacing" textLength="170.584" x="1590.36" y="137.4795">optimize_function_: bool</text><rect fill="none" height="6" style="stroke:#C82930;stroke-width:1;" width="6" x="1578.36" y="147.4297"/><text fill="#000000" font-family="sans-serif" font-size="14" lengthAdjust="spacing" textLength="135.2285" x="1590.36" y="153.7764">print_default_: bool</text><rect fill="none" height="6" style="stroke:#C82930;stroke-width:1;" width="6" x="1578.36" y="163.7266"/><text fill="#000000" font-family="sans-serif" font-size="14" lengthAdjust="spacing" textLength="117.8926" x="1590.36" y="170.0732">show_logs_: bool</text><rect fill="none" height="6" style="stroke:#C82930;stroke-width:1;" width="6" x="1578.36" y="180.0234"/><text fill="#000000" font-family="sans-serif" font-size="14" lengthAdjust="spacing" textLength="114.4473" x="1590.36" y="186.3701">answer_: double</text><rect fill="none" height="6" style="stroke:#C82930;stroke-width:1;" width="6" x="1578.36" y="196.3203"/><text fill="#000000" font-family="sans-serif" font-size="14" lengthAdjust="spacing" textLength="82.0654" x="1590.36" y="202.667">error_: float</text><rect fill="none" height="6" style="stroke:#C82930;stroke-width:1;" width="6" x="1578.36" y="212.6172"/><text fill="#000000" font-family="sans-serif" font-size="14" lengthAdjust="spacing" textLength="100.8574" x="1590.36" y="218.9639">iterations_: int</text><rect fill="none" height="6" style="stroke:#C82930;stroke-width:1;" width="6" x="1578.36" y="228.9141"/><text fill="#000000" font-family="sans-serif" font-size="14" lengthAdjust="spacing" textLength="135.6182" x="1590.36" y="235.2607">dimensions_: size_t</text><rect fill="none" height="6" style="stroke:#C82930;stroke-width:1;" width="6" x="1578.36" y="245.2109"/><text fill="#000000" font-family="sans-serif" font-size="14" lengthAdjust="spacing" textLength="165.2656" x="1590.36" y="251.5576">check_fn_regex_: regex</text><line style="stroke:#181818;stroke-width:0.5;" x1="1571.36" x2="1903.736" y1="258.8594" y2="258.8594"/><rect fill="#F24D5C" height="6" style="stroke:#C82930;stroke-width:1;" width="6" x="1578.36" y="269.5078"/><text fill="#000000" font-family="sans-serif" font-size="14" lengthAdjust="spacing" textLength="119.2871" x="1590.36" y="275.8545">InitFrame_():void</text><rect fill="#F24D5C" height="6" style="stroke:#C82930;stroke-width:1;" width="6" x="1578.36" y="285.8047"/><text fill="#000000" font-family="sans-serif" font-size="14" lengthAdjust="spacing" textLength="181.8018" x="1590.36" y="292.1514">ShowInputWindow_():void</text><rect fill="#F24D5C" height="6" style="stroke:#C82930;stroke-width:1;" width="6" x="1578.36" y="302.1016"/><text fill="#000000" font-family="sans-serif" font-size="14" lengthAdjust="spacing" textLength="194.1816" x="1590.36" y="308.4482">ShowOutputWindow_():void</text><rect fill="#F24D5C" height="6" style="stroke:#C82930;stroke-width:1;" width="6" x="1578.36" y="318.3984"/><text fill="#000000" font-family="sans-serif" font-size="14" lengthAdjust="spacing" textLength="202.9727" x="1590.36" y="324.7451">ShowSettingsWindow_():void</text><rect fill="#F24D5C" height="6" style="stroke:#C82930;stroke-width:1;" width="6" x="1578.36" y="334.6953"/><text fill="#000000" font-family="sans-serif" font-size="14" lengthAdjust="spacing" textLength="308.376" x="1590.36" y="341.042">IsExprCorrect_(expression: std::string): bool</text><rect fill="#F24D5C" height="6" style="stroke:#C82930;stroke-width:1;" width="6" x="1578.36" y="350.9922"/><text fill="#000000" font-family="sans-serif" font-size="14" lengthAdjust="spacing" textLength="257.8447" x="1590.36" y="357.3389">PrintPoint_(point: const Point&amp;): void</text><rect fill="#F24D5C" height="6" style="stroke:#C82930;stroke-width:1;" width="6" x="1578.36" y="367.2891"/><text fill="#000000" font-family="sans-serif" font-size="14" lengthAdjust="spacing" textLength="152.8379" x="1590.36" y="373.6357">ReadFunction_(): void</text><rect fill="#F24D5C" height="6" style="stroke:#C82930;stroke-width:1;" width="6" x="1578.36" y="383.5859"/><text fill="#000000" font-family="sans-serif" font-size="14" lengthAdjust="spacing" textLength="179.8057" x="1590.36" y="389.9326">OptimizeFunction_(): void</text><rect fill="#F24D5C" height="6" style="stroke:#C82930;stroke-width:1;" width="6" x="1578.36" y="399.8828"/><text fill="#000000" font-family="sans-serif" font-size="14" lengthAdjust="spacing" textLength="153.6445" x="1590.36" y="406.2295">ClearFunction_(): void</text></g><!--class stringResources--><g class="entity" data-entity="stringResources" data-source-line="81" data-uid="ent0007" id="entity_stringResources"><rect fill="#F1F1F1" height="455.4219" rx="2.5" ry="2.5" style="stroke:#181818;stroke-width:0.5;" width="290.3115" x="1965.39" y="490.53"/><ellipse cx="2049.9847" cy="506.53" fill="#ADD1B2" rx="11" ry="11" style="stroke:#181818;stroke-width:1;"/><path d="M2052.9535,512.1706 Q2052.3754,512.4675 2051.7347,512.6081 Q2051.0941,512.7644 2050.391,512.7644 Q2047.891,512.7644 2046.5629,511.1238 Q2045.2504,509.4675 2045.2504,506.3425 Q2045.2504,503.2175 2046.5629,501.5613 Q2047.891,499.905 2050.391,499.905 Q2051.0941,499.905 2051.7347,500.0613 Q2052.391,500.2175 2052.9535,500.5144 L2052.9535,503.2331 Q2052.3285,502.655 2051.7347,502.3894 Q2051.141,502.1081 2050.516,502.1081 Q2049.1722,502.1081 2048.4847,503.1863 Q2047.7972,504.2488 2047.7972,506.3425 Q2047.7972,508.4363 2048.4847,509.5144 Q2049.1722,510.5769 2050.516,510.5769 Q2051.141,510.5769 2051.7347,510.3113 Q2052.3285,510.03 2052.9535,509.4519 L2052.9535,512.1706 Z " fill="#000000"/><text fill="#000000" font-family="sans-serif" font-size="14" lengthAdjust="spacing" textLength="112.6221" x="2070.4847" y="511.3767">stringResources</text><line style="stroke:#181818;stroke-width:0.5;" x1="1966.39" x2="2254.7015" y1="522.53" y2="522.53"/><line style="stroke:#181818;stroke-width:0.5;" x1="1966.39" x2="2254.7015" y1="530.53" y2="530.53"/><ellipse cx="1976.39" cy="544.1784" fill="#84BE84" rx="3" ry="3" style="stroke:#038048;stroke-width:1;"/><text fill="#000000" font-family="sans-serif" font-size="14" lengthAdjust="spacing" textLength="243.5781" x="1985.39" y="547.5251">read_function_string(): const char*</text><ellipse cx="1976.39" cy="560.4753" fill="#84BE84" rx="3" ry="3" style="stroke:#038048;stroke-width:1;"/><text fill="#000000" font-family="sans-serif" font-size="14" lengthAdjust="spacing" textLength="236.8584" x="1985.39" y="563.822">invalid_input_string(): const char*</text><ellipse cx="1976.39" cy="576.7722" fill="#84BE84" rx="3" ry="3" style="stroke:#038048;stroke-width:1;"/><text fill="#000000" font-family="sans-serif" font-size="14" lengthAdjust="spacing" textLength="208.9199" x="1985.39" y="580.1189">measure_string(): const char*</text><ellipse cx="1976.39" cy="593.0691" fill="#84BE84" rx="3" ry="3" style="stroke:#038048;stroke-width:1;"/><text fill="#000000" font-family="sans-serif" font-size="14" lengthAdjust="spacing" textLength="247.7549" x="1985.39" y="596.4157">input_function_string(): const char*</text><ellipse cx="1976.39" cy="609.3659" fill="#84BE84" rx="3" ry="3" style="stroke:#038048;stroke-width:1;"/><text fill="#000000" font-family="sans-serif" font-size="14" lengthAdjust="spacing" textLength="232.5654" x="1985.39" y="612.7126">read_button_string(): const char*</text><ellipse cx="1976.39" cy="625.6628" fill="#84BE84" rx="3" ry="3" style="stroke:#038048;stroke-width:1;"/><text fill="#000000" font-family="sans-serif" font-size="14" lengthAdjust="spacing" textLength="235.2656" x="1985.39" y="629.0095">clear_button_string(): const char*</text><ellipse cx="1976.39" cy="641.9597" fill="#84BE84" rx="3" ry="3" style="stroke:#038048;stroke-width:1;"/><text fill="#000000" font-family="sans-serif" font-size="14" lengthAdjust="spacing" textLength="243.6807" x="1985.39" y="645.3064">input_window_string(): const char*</text><ellipse cx="1976.39" cy="658.2566" fill="#84BE84" rx="3" ry="3" style="stroke:#038048;stroke-width:1;"/><text fill="#000000" font-family="sans-serif" font-size="14" lengthAdjust="spacing" textLength="253.8457" x="1985.39" y="661.6032">output_window_string(): const char*</text><ellipse cx="1976.39" cy="674.5534" fill="#84BE84" rx="3" ry="3" style="stroke:#038048;stroke-width:1;"/><text fill="#000000" font-family="sans-serif" font-size="14" lengthAdjust="spacing" textLength="249.9834" x="1985.39" y="677.9001">function_value_string(): const char*</text><ellipse cx="1976.39" cy="690.8503" fill="#84BE84" rx="3" ry="3" style="stroke:#038048;stroke-width:1;"/><text fill="#000000" font-family="sans-serif" font-size="14" lengthAdjust="spacing" textLength="220.6094" x="1985.39" y="694.197">app_name_string(): const char*</text><ellipse cx="1976.39" cy="707.1472" fill="#84BE84" rx="3" ry="3" style="stroke:#038048;stroke-width:1;"/><text fill="#000000" font-family="sans-serif" font-size="14" lengthAdjust="spacing" textLength="263.498" x="1985.39" y="710.4939">settings_window_string(): const char*</text><ellipse cx="1976.39" cy="723.4441" fill="#84BE84" rx="3" ry="3" style="stroke:#038048;stroke-width:1;"/><text fill="#000000" font-family="sans-serif" font-size="14" lengthAdjust="spacing" textLength="198.1191" x="1985.39" y="726.7907">answer_string(): const char*</text><ellipse cx="1976.39" cy="739.7409" fill="#84BE84" rx="3" ry="3" style="stroke:#038048;stroke-width:1;"/><text fill="#000000" font-family="sans-serif" font-size="14" lengthAdjust="spacing" textLength="238.6836" x="1985.39" y="743.0876">solving_error_string(): const char*</text><ellipse cx="1976.39" cy="756.0378" fill="#84BE84" rx="3" ry="3" style="stroke:#038048;stroke-width:1;"/><text fill="#000000" font-family="sans-serif" font-size="14" lengthAdjust="spacing" textLength="251.4941" x="1985.39" y="759.3845">max_iterations_string(): const char*</text><ellipse cx="1976.39" cy="772.3347" fill="#84BE84" rx="3" ry="3" style="stroke:#038048;stroke-width:1;"/><text fill="#000000" font-family="sans-serif" font-size="14" lengthAdjust="spacing" textLength="230.6582" x="1985.39" y="775.6814">saved_error_string(): const char*</text><ellipse cx="1976.39" cy="788.6316" fill="#84BE84" rx="3" ry="3" style="stroke:#038048;stroke-width:1;"/><text fill="#000000" font-family="sans-serif" font-size="14" lengthAdjust="spacing" textLength="262.6504" x="1985.39" y="791.9782">saved_iterations_string(): const char*</text><ellipse cx="1976.39" cy="804.9284" fill="#84BE84" rx="3" ry="3" style="stroke:#038048;stroke-width:1;"/><text fill="#000000" font-family="sans-serif" font-size="14" lengthAdjust="spacing" textLength="236.79" x="1985.39" y="808.2751">close_button_string(): const char*</text><ellipse cx="1976.39" cy="821.2253" fill="#84BE84" rx="3" ry="3" style="stroke:#038048;stroke-width:1;"/><text fill="#000000" font-family="sans-serif" font-size="14" lengthAdjust="spacing" textLength="261.0508" x="1985.39" y="824.572">optimize_button_string(): const char*</text><ellipse cx="1976.39" cy="837.5222" fill="#84BE84" rx="3" ry="3" style="stroke:#038048;stroke-width:1;"/><text fill="#000000" font-family="sans-serif" font-size="14" lengthAdjust="spacing" textLength="256.5596" x="1985.39" y="840.8689">settings_button_string(): const char*</text><ellipse cx="1976.39" cy="853.8191" fill="#84BE84" rx="3" ry="3" style="stroke:#038048;stroke-width:1;"/><text fill="#000000" font-family="sans-serif" font-size="14" lengthAdjust="spacing" textLength="245.9092" x="1985.39" y="857.1657">show_logs_checkbox(): const char*</text><ellipse cx="1976.39" cy="870.1159" fill="#84BE84" rx="3" ry="3" style="stroke:#038048;stroke-width:1;"/><text fill="#000000" font-family="sans-serif" font-size="14" lengthAdjust="spacing" textLength="222.8652" x="1985.39" y="873.4626">start_point_string(): const char*</text><ellipse cx="1976.39" cy="886.4128" fill="#84BE84" rx="3" ry="3" style="stroke:#038048;stroke-width:1;"/><text fill="#000000" font-family="sans-serif" font-size="14" lengthAdjust="spacing" textLength="260.2373" x="1985.39" y="889.7595">graphic_window_string(): const char*</text><ellipse cx="1976.39" cy="902.7097" fill="#84BE84" rx="3" ry="3" style="stroke:#038048;stroke-width:1;"/><text fill="#000000" font-family="sans-serif" font-size="14" lengthAdjust="spacing" textLength="264.3115" x="1985.39" y="906.0564">function_graphic_string(): const char*</text><ellipse cx="1976.39" cy="919.0066" fill="#84BE84" rx="3" ry="3" style="stroke:#038048;stroke-width:1;"/><text fill="#000000" font-family="sans-serif" font-size="14" lengthAdjust="spacing" textLength="212.9189" x="1985.39" y="922.3532">q_from_X_string(): const char*</text><ellipse cx="1976.39" cy="935.3034" fill="#84BE84" rx="3" ry="3" style="stroke:#038048;stroke-width:1;"/><text fill="#000000" font-family="sans-serif" font-size="14" lengthAdjust="spacing" textLength="149.9873" x="1985.39" y="938.6501">argmin(): const char*</text></g><!--class windowSetup--><g class="entity" data-entity="windowSetup" data-source-line="109" data-uid="ent0008" id="entity_windowSetup"><rect fill="#F1F1F1" height="96.8906" rx="2.5" ry="2.5" style="stroke:#181818;stroke-width:0.5;" width="339.9199" x="2290.58" y="669.8"/><ellipse cx="2409.3578" cy="685.8" fill="#ADD1B2" rx="11" ry="11" style="stroke:#181818;stroke-width:1;"/><path d="M2412.3266,691.4406 Q2411.7485,691.7375 2411.1078,691.8781 Q2410.4672,692.0344 2409.7641,692.0344 Q2407.2641,692.0344 2405.936,690.3938 Q2404.6235,688.7375 2404.6235,685.6125 Q2404.6235,682.4875 2405.936,680.8313 Q2407.2641,679.175 2409.7641,679.175 Q2410.4672,679.175 2411.1078,679.3313 Q2411.7641,679.4875 2412.3266,679.7844 L2412.3266,682.5031 Q2411.7016,681.925 2411.1078,681.6594 Q2410.5141,681.3781 2409.8891,681.3781 Q2408.5453,681.3781 2407.8578,682.4563 Q2407.1703,683.5188 2407.1703,685.6125 Q2407.1703,687.7063 2407.8578,688.7844 Q2408.5453,689.8469 2409.8891,689.8469 Q2410.5141,689.8469 2411.1078,689.5813 Q2411.7016,689.3 2412.3266,688.7219 L2412.3266,691.4406 Z " fill="#000000"/><text fill="#000000" font-family="sans-serif" font-size="14" lengthAdjust="spacing" textLength="93.8643" x="2429.8578" y="690.6467">windowSetup</text><line style="stroke:#181818;stroke-width:0.5;" x1="2291.58" x2="2629.4999" y1="701.8" y2="701.8"/><line style="stroke:#181818;stroke-width:0.5;" x1="2291.58" x2="2629.4999" y1="709.8" y2="709.8"/><ellipse cx="2301.58" cy="723.4484" fill="#84BE84" rx="3" ry="3" style="stroke:#038048;stroke-width:1;"/><text fill="#000000" font-family="sans-serif" font-size="14" lengthAdjust="spacing" textLength="199.2471" x="2310.58" y="726.7951">SetWindow(): GLFWwindow*</text><ellipse cx="2301.58" cy="739.7453" fill="#84BE84" rx="3" ry="3" style="stroke:#038048;stroke-width:1;"/><text fill="#000000" font-family="sans-serif" font-size="14" lengthAdjust="spacing" textLength="313.9199" x="2310.58" y="743.092">RenderWindow(GLFWwindow* window): void</text><ellipse cx="2301.58" cy="756.0422" fill="#84BE84" rx="3" ry="3" style="stroke:#038048;stroke-width:1;"/><text fill="#000000" font-family="sans-serif" font-size="14" lengthAdjust="spacing" textLength="301.5879" x="2310.58" y="759.3889">CloseWindow(GLFWwindow* window): void</text></g><path d="M433.11,1061.98 L433.11,1070.5464 L391.7455,1075.2484 L433.11,1078.5464 L433.11,1087.1128 A0,0 0 0 0 433.11,1087.1128 L627.985,1087.1128 A0,0 0 0 0 627.985,1087.1128 L627.985,1071.98 L617.985,1061.98 L433.11,1061.98 A0,0 0 0 0 433.11,1061.98" fill="#FEFFDD" style="stroke:#181818;stroke-width:0.5;"/><path d="M617.985,1061.98 L617.985,1071.98 L627.985,1071.98 L617.985,1061.98" fill="#FEFFDD" style="stroke:#181818;stroke-width:0.5;"/><text fill="#000000" font-family="sans-serif" font-size="13" lengthAdjust="spacing" textLength="173.875" x="439.11" y="1079.0469">Vector of points in simplex</text><path d="M939.66,1333.66 L939.66,1342.2264 L705.2167,1257.2884 L939.66,1350.2264 L939.66,1358.7928 A0,0 0 0 0 939.66,1358.7928 L1187.43,1358.7928 A0,0 0 0 0 1187.43,1358.7928 L1187.43,1343.66 L1177.43,1333.66 L939.66,1333.66 A0,0 0 0 0 939.66,1333.66" fill="#FEFFDD" style="stroke:#181818;stroke-width:0.5;"/><path d="M1177.43,1333.66 L1177.43,1343.66 L1187.43,1343.66 L1177.43,1333.66" fill="#FEFFDD" style="stroke:#181818;stroke-width:0.5;"/><text fill="#000000" font-family="sans-serif" font-size="13" lengthAdjust="spacing" textLength="226.77" x="945.66" y="1350.7269">Stores the coordinates of the point</text><path d="M1566.67,700.68 L1566.67,709.2464 L703.2067,608.0222 L1566.67,717.2464 L1566.67,725.8128 A0,0 0 0 0 1566.67,725.8128 L1930.4244,725.8128 A0,0 0 0 0 1930.4244,725.8128 L1930.4244,710.68 L1920.4244,700.68 L1566.67,700.68 A0,0 0 0 0 1566.67,700.68" fill="#FEFFDD" style="stroke:#181818;stroke-width:0.5;"/><path d="M1920.4244,700.68 L1920.4244,710.68 L1930.4244,710.68 L1920.4244,700.68" fill="#FEFFDD" style="stroke:#181818;stroke-width:0.5;"/><text fill="#000000" font-family="sans-serif" font-size="13" lengthAdjust="spacing" textLength="342.7544" x="1572.67" y="717.7469">Store logs for each function that has been optimized</text><g class="entity" data-entity="GMN23" data-source-line="138" data-uid="ent0024" id="entity_GMN23"><path d="M1017.65,705.68 L1017.65,714.25 L983.44,718.25 L1017.65,722.25 L1017.65,730.8128 A0,0 0 0 0 1017.65,730.8128 L1531.4313,730.8128 A0,0 0 0 0 1531.4313,730.8128 L1531.4313,715.68 L1521.4313,705.68 L1017.65,705.68 A0,0 0 0 0 1017.65,705.68" fill="#FEFFDD" style="stroke:#181818;stroke-width:0.5;"/><path d="M1521.4313,705.68 L1521.4313,715.68 L1531.4313,715.68 L1521.4313,705.68" fill="#FEFFDD" style="stroke:#181818;stroke-width:0.5;"/><text fill="#000000" font-family="sans-serif" font-size="13" lengthAdjust="spacing" textLength="492.7813" x="1023.65" y="722.7469">Class for finding the minimum of a function using the Nelder-Mead method.</text></g><g class="entity" data-entity="GMN26" data-source-line="142" data-uid="ent0027" id="entity_GMN26"><path d="M1939.41,197.7 L1939.41,206.27 L1904.88,210.27 L1939.41,214.27 L1939.41,222.8328 A0,0 0 0 0 1939.41,222.8328 L2321.6742,222.8328 A0,0 0 0 0 2321.6742,222.8328 L2321.6742,207.7 L2311.6742,197.7 L1939.41,197.7 A0,0 0 0 0 1939.41,197.7" fill="#FEFFDD" style="stroke:#181818;stroke-width:0.5;"/><path d="M2311.6742,197.7 L2311.6742,207.7 L2321.6742,207.7 L2311.6742,197.7" fill="#FEFFDD" style="stroke:#181818;stroke-width:0.5;"/><text fill="#000000" font-family="sans-serif" font-size="13" lengthAdjust="spacing" textLength="361.2642" x="1945.41" y="214.7669">Class for UI interaction, optimization, and logs handling</text></g><g class="entity" data-entity="GMN29" data-source-line="146" data-uid="ent0030" id="entity_GMN29"><path d="M1096.19,1066.98 L1096.19,1075.55 L1061.62,1079.55 L1096.19,1083.55 L1096.19,1092.1128 A0,0 0 0 0 1096.19,1092.1128 L1322.8921,1092.1128 A0,0 0 0 0 1322.8921,1092.1128 L1322.8921,1076.98 L1312.8921,1066.98 L1096.19,1066.98 A0,0 0 0 0 1096.19,1066.98" fill="#FEFFDD" style="stroke:#181818;stroke-width:0.5;"/><path d="M1312.8921,1066.98 L1312.8921,1076.98 L1322.8921,1076.98 L1312.8921,1066.98" fill="#FEFFDD" style="stroke:#181818;stroke-width:0.5;"/><text fill="#000000" font-family="sans-serif" font-size="13" lengthAdjust="spacing" textLength="205.7021" x="1102.19" y="1084.0469">Class for expression calculation</text></g><!--link AppUI to stringResources--><g class="link" data-entity-1="AppUI" data-entity-2="stringResources" data-source-line="115" data-uid="lnk9" id="link_AppUI_stringResources"><path codeLine="115" d="M1890.6,413.75 C1909.86,439.53 1929.22,465.61 1947.54,490.53 C1953.29,498.35 1959.13,506.32 1965.02,514.38" fill="none" id="AppUI-stringResources" style="stroke:#181818;stroke-width:1;"/><text fill="#000000" font-family="sans-serif" font-size="13" lengthAdjust="spacing" textLength="29.7832" x="1925.54" y="456.5969">uses</text><text fill="#000000" font-family="sans-serif" font-size="13" lengthAdjust="spacing" textLength="8.271" x="1887.9614" y="433.4015">1</text><text fill="#000000" font-family="sans-serif" font-size="13" lengthAdjust="spacing" textLength="8.271" x="1949.3171" y="500.552">1</text></g><!--link AppUI to windowSetup--><g class="link" data-entity-1="AppUI" data-entity-2="windowSetup" data-source-line="116" data-uid="lnk10" id="link_AppUI_windowSetup"><path codeLine="116" d="M1905.13,403.27 C1910.52,406.9 1915.99,410.33 1921.54,413.53 C2060.2,493.66 2136.87,407.07 2273.54,490.53 C2346.04,534.81 2403.34,617.39 2434.54,669.72" fill="none" id="AppUI-windowSetup" style="stroke:#181818;stroke-width:1;"/><text fill="#000000" font-family="sans-serif" font-size="13" lengthAdjust="spacing" textLength="29.7832" x="2205.54" y="456.5969">uses</text><text fill="#000000" font-family="sans-serif" font-size="13" lengthAdjust="spacing" textLength="8.271" x="1912.9109" y="408.7456">1</text><text fill="#000000" font-family="sans-serif" font-size="13" lengthAdjust="spacing" textLength="8.271" x="2422.1537" y="658.5679">1</text></g><!--link NelderMeadSolver to Log--><g class="link" data-entity-1="NelderMeadSolver" data-entity-2="Log" data-source-line="118" data-uid="lnk11" id="link_NelderMeadSolver_Log"><path codeLine="118" d="M450.5,905.48 C407.77,952 365.58,997.94 335.41,1030.78" fill="none" id="NelderMeadSolver-Log" style="stroke:#181818;stroke-width:1;"/><text fill="#000000" font-family="sans-serif" font-size="13" lengthAdjust="spacing" textLength="55.0278" x="381.54" y="989.0269">contains</text><text fill="#000000" font-family="sans-serif" font-size="13" lengthAdjust="spacing" textLength="8.271" x="435.6677" y="925.1562">1</text><text fill="#000000" font-family="sans-serif" font-size="13" lengthAdjust="spacing" textLength="23.0356" x="316.9634" y="1019.9439">0..*</text></g><!--link NelderMeadSolver to Function--><g class="link" data-entity-1="NelderMeadSolver" data-entity-2="Function" data-source-line="119" data-uid="lnk12" id="link_NelderMeadSolver_Function"><path codeLine="119" d="M772.37,905.48 C807.01,948.24 841.24,990.51 867.2,1022.57" fill="none" id="NelderMeadSolver-Function" style="stroke:#181818;stroke-width:1;"/><text fill="#000000" font-family="sans-serif" font-size="13" lengthAdjust="spacing" textLength="29.7832" x="842.54" y="989.0269">uses</text><text fill="#000000" font-family="sans-serif" font-size="13" lengthAdjust="spacing" textLength="8.271" x="770.1108" y="925.1562">1</text><text fill="#000000" font-family="sans-serif" font-size="13" lengthAdjust="spacing" textLength="8.271" x="853.2032" y="1011.786">1</text></g><!--link NelderMeadSolver to Point--><g class="link" data-entity-1="NelderMeadSolver" data-entity-2="Point" data-source-line="120" data-uid="lnk13" id="link_NelderMeadSolver_Point"><path codeLine="120" d="M643.99,905.57 C655.85,1004.07 670.16,1122.87 681,1212.88" fill="none" id="NelderMeadSolver-Point" style="stroke:#181818;stroke-width:1;"/><text fill="#000000" font-family="sans-serif" font-size="13" lengthAdjust="spacing" textLength="29.7832" x="672.54" y="1084.1169">uses</text><text fill="#000000" font-family="sans-serif" font-size="13" lengthAdjust="spacing" textLength="8.271" x="636.716" y="925.2497">1</text><text fill="#000000" font-family="sans-serif" font-size="13" lengthAdjust="spacing" textLength="23.0356" x="656.4672" y="1201.975">1..*</text></g><!--link Function to Point--><g class="link" data-entity-1="Function" data-entity-2="Point" data-source-line="121" data-uid="lnk14" id="link_Function_Point"><path codeLine="121" d="M868,1136.43 C850.1,1158.87 828.61,1185.83 807.01,1212.92" fill="none" id="Function-Point" style="stroke:#181818;stroke-width:1;"/><text fill="#000000" font-family="sans-serif" font-size="13" lengthAdjust="spacing" textLength="29.7832" x="843.54" y="1179.2069">uses</text><text fill="#000000" font-family="sans-serif" font-size="13" lengthAdjust="spacing" textLength="8.271" x="854.1007" y="1156.3508">1</text><text fill="#000000" font-family="sans-serif" font-size="13" lengthAdjust="spacing" textLength="8.271" x="804.7849" y="1202.0172">1</text></g><!--link AppUI to NelderMeadSolver--><g class="link" data-entity-1="AppUI" data-entity-2="NelderMeadSolver" data-source-line="122" data-uid="lnk15" id="link_AppUI_NelderMeadSolver"><path codeLine="122" d="M1570.11,265.23 C1418.4,316.34 1190.22,398.76 1000.54,490.53 C974.83,502.97 948.58,516.59 922.49,530.79" fill="none" id="AppUI-NelderMeadSolver" style="stroke:#181818;stroke-width:1;"/><text fill="#000000" font-family="sans-serif" font-size="13" lengthAdjust="spacing" textLength="29.7832" x="1098.54" y="456.5969">uses</text><text fill="#000000" font-family="sans-serif" font-size="13" lengthAdjust="spacing" textLength="8.271" x="1554.3479" y="264.4506">1</text><text fill="#000000" font-family="sans-serif" font-size="13" lengthAdjust="spacing" textLength="8.271" x="926.0949" y="520.2439">1</text></g><!--link AppUI to Point--><g class="link" data-entity-1="AppUI" data-entity-2="Point" data-source-line="123" data-uid="lnk16" id="link_AppUI_Point"><path codeLine="123" d="M1569.92,218.69 C1218.72,237.87 423.2,301.61 242.54,490.53 C42.9,699.31 6,896.67 167.54,1136.14 C239.55,1242.89 374.71,1296.42 490.52,1323.26" fill="none" id="AppUI-Point" style="stroke:#181818;stroke-width:1;"/><text fill="#000000" font-family="sans-serif" font-size="13" lengthAdjust="spacing" textLength="29.7832" x="93.54" y="989.0269">uses</text><text fill="#000000" font-family="sans-serif" font-size="13" lengthAdjust="spacing" textLength="8.271" x="1554.1492" y="215.8018">1</text><text fill="#000000" font-family="sans-serif" font-size="13" lengthAdjust="spacing" textLength="8.271" x="474.2821" y="1318.9444">1</text></g><!--SRC=[fLVlQ-Cs6FwUlqBSX-8sIMa7Ws7MmiZMet1RIxFj1iSX55kEHMt9a-IsxDZ_lbUIPSkEbUouJt7qFdhUtw-ah29AeKV1k4PV5WYjKKuqmIbIEa_J5vff8N_CHRkhw2s8bmwQvAocN3715I3PFnJhyr0A52dAGAhdUCuEiHR5EDECL40dSSMKxl7TXYr8adElq2w9Xae2r9y-9on_wsrnkbFa28uXFUPi15hU94ANL7edhAbd07OV8-pwAx0NDqacQE6LpeEMIKKBFQPR8SdsfPxNCJRdctPV98rPcswVCtgoBuIiq0nBl-_VnIApLVT1x6tDBHrSZOlEWbtDrPIeLj9HFekMP_Y5LFrYJti74WsbQRbDHTEtHb9bgjNNjTAIyNqd1dqFnWsUJye-WDvQxBBdJWRE4ULvXzkGAcihegcFPn-3gRM_qIgdybTAygseNgZikf0s2WV-cWMHbJWe_ZK4NxCQ_kQuwCnIteEQDA7vAxTgcmgYVdkxwE92E3Q9mpvLWK9LIluSbKfQL3GgRHjeQueLgvkAllM8e76dRYVWiFSNtQ3hAxh-VkMSzZxRvIit2XuwrnFl-MZSEAVFZDT4QZnVZ44jRKJBzS-iFies7ZplgOP0gfCxHc6tEy7HP6v0sVNnEBBk3-10VIVnQsSswgReDfHh69z95_gHMNLRGTIWCdoNkXOB9y4Q7EEcfUcsovqPzLxD9A1sqyfsOjftHkzrH9jLqf7_BlwqdVRLvixEYJKCb8nKsnA2_uoJYLbWkzTnb1s6dGtXGRsy29Qx25LYzyrgF64_1tvgcZ_kNVChsn7GDTCcCK89_uAEDxrL4ldf-hiVFXinuqshez8WVJX8UYFDGh1f9qHb17x2pCdSffmM15mCrbKfNd45lH6i4QvUhKV3ZA1I2hDIL89O8vWsTTSDiSwmuPencdnPIRDdN70iwTwE5_kx096HtiCruawIcc9e49-rBLXrRsBpaV4S39o87beTbMsfrj3Ewb1whtw1Os0Zf8HInD4pOOZ3eucP3JjEvgUIftw2DFkYCYfxWPzyiy9DHOaybFH5vWnweagqCgFgos9focd8hfERVSuiKpmNYoNZSD2o7BlYYe2wGphECIhC2CgQiskrZaCou-C9Z5FswX8MmGYRyXEWtbu8G1lrZJGDvgRW8dBLLT09PLsNn4XW1C0wTeqJIm9vmq4ZnQZ82uoGeqGESfegguIY9xBHJv7Zi3vA9s3zVB5ZO2VU3Y71c8kmx2LfIfRzt_HxU0JtDowagF5VqSpAVStuTBblIsS4p9csSHTY-7JJncnv_-7keqDS6DaJvN0eTE90rh4Cqs2vCRav2GGhtDdpxleTMg_jpsHEfAXLL1t20hixoEBWEklXLvUN5-_ibTy6GHF6LHmDF_qrlgEEOospUy9ss7vlm3S27BWoPO_X7jtKTivoeQbxMY5H6D_IrBrax2l0tMsCn2t2eUOl1ml88JAx5rCInv_QHxXbsG87LGXUc10s8NF6uNAc3DGiMUQ1RSnru5Cwzs8Oj23JLQW0cod9IkGXe8XeL1A5TfJouTKHE75ShzMmiPLko0ke6gWkQpzq1QlRskmYWy9MURcZMXikU0NgKkINKRKsLnDTa3ncRdF44g-yySJzWoUVyxc4hygy26FSlg0czCE9ZxBknMT0dkK_]--></g></svg>