<svg xmlns="http://www.w3.org/2000/svg" xmlns:xlink="http://www.w3.org/1999/xlink" contentStyleType="text/css" data-diagram-type="CLASS" height="1577px" preserveAspectRatio="none" style="width:2026px;height:1577px;background:#FFFFFF;" version="1.1" viewBox="0 0 2026 1577" width="2026px" zoomAndPan="magnify"><defs/><g><!--class Point--><g id="elem_Point"><rect codeLine="1" fill="#F1F1F1" height="357.6406" id="Point" rx="2.5" ry="2.5" style="stroke:#181818;stroke-width:0.5;" width="413.4336" x="572.27" y="1213"/><ellipse cx="757.1069" cy="1229" fill="#ADD1B2" rx="11" ry="11" style="stroke:#181818;stroke-width:1;"/><path d="M760.0757,1234.6406 Q759.4975,1234.9375 758.8569,1235.0781 Q758.2163,1235.2344 757.5132,1235.2344 Q755.0132,1235.2344 753.685,1233.5938 Q752.3725,1231.9375 752.3725,1228.8125 Q752.3725,1225.6875 753.685,1224.0313 Q755.0132,1222.375 757.5132,1222.375 Q758.2163,1222.375 758.8569,1222.5313 Q759.5132,1222.6875 760.0757,1222.9844 L760.0757,1225.7031 Q759.4507,1225.125 758.8569,1224.8594 Q758.2632,1224.5781 757.6382,1224.5781 Q756.2944,1224.5781 755.6069,1225.6563 Q754.9194,1226.7188 754.9194,1228.8125 Q754.9194,1230.9063 755.6069,1231.9844 Q756.2944,1233.0469 757.6382,1233.0469 Q758.2632,1233.0469 758.8569,1232.7813 Q759.4507,1232.5 760.0757,1231.9219 L760.0757,1234.6406 Z " fill="#000000"/><text fill="#000000" font-family="sans-serif" font-size="14" lengthAdjust="spacing" textLength="35.2598" x="777.6069" y="1233.8467">Point</text><line style="stroke:#181818;stroke-width:0.5;" x1="573.27" x2="984.7036" y1="1245" y2="1245"/><rect fill="transparent" height="6" style="stroke:#C82930;stroke-width:1;" width="6" x="580.27" y="1255.6484"/><text fill="#000000" font-family="sans-serif" font-size="14" lengthAdjust="spacing" textLength="194.3867" x="592.27" y="1261.9951">data_: std::vector&lt;double&gt;</text><line style="stroke:#181818;stroke-width:0.5;" x1="573.27" x2="984.7036" y1="1269.2969" y2="1269.2969"/><ellipse cx="583.27" cy="1282.9453" fill="#84BE84" rx="3" ry="3" style="stroke:#038048;stroke-width:1;"/><text fill="#000000" font-family="sans-serif" font-size="14" lengthAdjust="spacing" textLength="174.8018" x="592.27" y="1286.292">Point(dimensions: size_t)</text><ellipse cx="583.27" cy="1299.2422" fill="#84BE84" rx="3" ry="3" style="stroke:#038048;stroke-width:1;"/><text fill="#000000" font-family="sans-serif" font-size="14" lengthAdjust="spacing" textLength="286.8564" x="592.27" y="1302.5889">Point(data: const std::vector&lt;double&gt;&amp;)</text><ellipse cx="583.27" cy="1315.5391" fill="#84BE84" rx="3" ry="3" style="stroke:#038048;stroke-width:1;"/><text fill="#000000" font-family="sans-serif" font-size="14" lengthAdjust="spacing" textLength="302.668" x="592.27" y="1318.8857">Point(data: std::initializer_list&lt;double&gt;&amp;&amp;)</text><ellipse cx="583.27" cy="1331.8359" fill="#84BE84" rx="3" ry="3" style="stroke:#038048;stroke-width:1;"/><text fill="#000000" font-family="sans-serif" font-size="14" lengthAdjust="spacing" textLength="181.1934" x="592.27" y="1335.1826">Point(other: const Point&amp;)</text><ellipse cx="583.27" cy="1348.1328" fill="#84BE84" rx="3" ry="3" style="stroke:#038048;stroke-width:1;"/><text fill="#000000" font-family="sans-serif" font-size="14" lengthAdjust="spacing" textLength="149.7412" x="592.27" y="1351.4795">Point(other: Point&amp;&amp;)</text><ellipse cx="583.27" cy="1364.4297" fill="#84BE84" rx="3" ry="3" style="stroke:#038048;stroke-width:1;"/><text fill="#000000" font-family="sans-serif" font-size="14" lengthAdjust="spacing" textLength="273.2188" x="592.27" y="1367.7764">operator=(other: const Point&amp;): Point&amp;</text><ellipse cx="583.27" cy="1380.7266" fill="#84BE84" rx="3" ry="3" style="stroke:#038048;stroke-width:1;"/><text fill="#000000" font-family="sans-serif" font-size="14" lengthAdjust="spacing" textLength="241.7666" x="592.27" y="1384.0732">operator=(other: Point&amp;&amp;): Point&amp;</text><ellipse cx="583.27" cy="1397.0234" fill="#84BE84" rx="3" ry="3" style="stroke:#038048;stroke-width:1;"/><text fill="#000000" font-family="sans-serif" font-size="14" lengthAdjust="spacing" textLength="57.9141" x="592.27" y="1400.3701">~Point()</text><ellipse cx="583.27" cy="1413.3203" fill="#84BE84" rx="3" ry="3" style="stroke:#038048;stroke-width:1;"/><text fill="#000000" font-family="sans-serif" font-size="14" lengthAdjust="spacing" textLength="88.4639" x="592.27" y="1416.667">Size(): size_t</text><ellipse cx="583.27" cy="1429.6172" fill="#84BE84" rx="3" ry="3" style="stroke:#038048;stroke-width:1;"/><text fill="#000000" font-family="sans-serif" font-size="14" lengthAdjust="spacing" textLength="251.1729" x="592.27" y="1432.9639">operator[](idx: size_t) const: double</text><ellipse cx="583.27" cy="1445.9141" fill="#84BE84" rx="3" ry="3" style="stroke:#038048;stroke-width:1;"/><text fill="#000000" font-family="sans-serif" font-size="14" lengthAdjust="spacing" textLength="219.7207" x="592.27" y="1449.2607">operator[](idx: size_t): double&amp;</text><ellipse cx="583.27" cy="1462.2109" fill="#84BE84" rx="3" ry="3" style="stroke:#038048;stroke-width:1;"/><text fill="#000000" font-family="sans-serif" font-size="14" lengthAdjust="spacing" textLength="284.9492" x="592.27" y="1465.5576">operator+=(other: const Point&amp;): Point&amp;</text><ellipse cx="583.27" cy="1478.5078" fill="#84BE84" rx="3" ry="3" style="stroke:#038048;stroke-width:1;"/><text fill="#000000" font-family="sans-serif" font-size="14" lengthAdjust="spacing" textLength="278.2705" x="592.27" y="1481.8545">operator-=(other: const Point&amp;): Point&amp;</text><ellipse cx="583.27" cy="1494.8047" fill="#84BE84" rx="3" ry="3" style="stroke:#038048;stroke-width:1;"/><text fill="#000000" font-family="sans-serif" font-size="14" lengthAdjust="spacing" textLength="231.8955" x="592.27" y="1498.1514">operator*=(coef: double): Point&amp;</text><ellipse cx="583.27" cy="1511.1016" fill="#84BE84" rx="3" ry="3" style="stroke:#038048;stroke-width:1;"/><text fill="#000000" font-family="sans-serif" font-size="14" lengthAdjust="spacing" textLength="387.4336" x="592.27" y="1514.4482">operator+(left: const Point&amp;, right: const Point&amp;): Point</text><ellipse cx="583.27" cy="1527.3984" fill="#84BE84" rx="3" ry="3" style="stroke:#038048;stroke-width:1;"/><text fill="#000000" font-family="sans-serif" font-size="14" lengthAdjust="spacing" textLength="380.7549" x="592.27" y="1530.7451">operator-(left: const Point&amp;, right: const Point&amp;): Point</text><ellipse cx="583.27" cy="1543.6953" fill="#84BE84" rx="3" ry="3" style="stroke:#038048;stroke-width:1;"/><text fill="#000000" font-family="sans-serif" font-size="14" lengthAdjust="spacing" textLength="351.5654" x="592.27" y="1547.042">operator*(point: const Point&amp;, coef: double): Point</text><ellipse cx="583.27" cy="1559.9922" fill="#84BE84" rx="3" ry="3" style="stroke:#038048;stroke-width:1;"/><text fill="#000000" font-family="sans-serif" font-size="14" lengthAdjust="spacing" textLength="351.5654" x="592.27" y="1563.3389">operator*(coef: double, point: const Point&amp;): Point</text></g><!--class Log--><g id="elem_Log"><rect codeLine="23" fill="#F1F1F1" height="96.8906" id="Log" rx="2.5" ry="2.5" style="stroke:#181818;stroke-width:0.5;" width="212.3955" x="151.77" y="1031"/><ellipse cx="241.0918" cy="1047" fill="#ADD1B2" rx="11" ry="11" style="stroke:#181818;stroke-width:1;"/><path d="M244.0605,1052.6406 Q243.4824,1052.9375 242.8418,1053.0781 Q242.2012,1053.2344 241.498,1053.2344 Q238.998,1053.2344 237.6699,1051.5938 Q236.3574,1049.9375 236.3574,1046.8125 Q236.3574,1043.6875 237.6699,1042.0313 Q238.998,1040.375 241.498,1040.375 Q242.2012,1040.375 242.8418,1040.5313 Q243.498,1040.6875 244.0605,1040.9844 L244.0605,1043.7031 Q243.4355,1043.125 242.8418,1042.8594 Q242.248,1042.5781 241.623,1042.5781 Q240.2793,1042.5781 239.5918,1043.6563 Q238.9043,1044.7188 238.9043,1046.8125 Q238.9043,1048.9063 239.5918,1049.9844 Q240.2793,1051.0469 241.623,1051.0469 Q242.248,1051.0469 242.8418,1050.7813 Q243.4355,1050.5 244.0605,1049.9219 L244.0605,1052.6406 Z " fill="#000000"/><text fill="#000000" font-family="sans-serif" font-size="14" lengthAdjust="spacing" textLength="25.252" x="261.5918" y="1051.8467">Log</text><line style="stroke:#181818;stroke-width:0.5;" x1="152.77" x2="363.1655" y1="1063" y2="1063"/><ellipse cx="162.77" cy="1076.6484" fill="transparent" rx="3" ry="3" style="stroke:#038048;stroke-width:1;"/><text fill="#000000" font-family="sans-serif" font-size="14" lengthAdjust="spacing" textLength="186.3955" x="171.77" y="1079.9951">points: std::vector&lt;Point&gt;</text><ellipse cx="162.77" cy="1092.9453" fill="transparent" rx="3" ry="3" style="stroke:#038048;stroke-width:1;"/><text fill="#000000" font-family="sans-serif" font-size="14" lengthAdjust="spacing" textLength="118.248" x="171.77" y="1096.292">measure: double</text><ellipse cx="162.77" cy="1109.2422" fill="transparent" rx="3" ry="3" style="stroke:#038048;stroke-width:1;"/><text fill="#000000" font-family="sans-serif" font-size="14" lengthAdjust="spacing" textLength="115.0078" x="171.77" y="1112.5889">func_val: double</text><line style="stroke:#181818;stroke-width:0.5;" x1="152.77" x2="363.1655" y1="1119.8906" y2="1119.8906"/></g><!--class Function--><g id="elem_Function"><rect codeLine="29" fill="#F1F1F1" height="113.1875" id="Function" rx="2.5" ry="2.5" style="stroke:#181818;stroke-width:0.5;" width="297.6396" x="629.77" y="1023"/><ellipse cx="744.1831" cy="1039" fill="#ADD1B2" rx="11" ry="11" style="stroke:#181818;stroke-width:1;"/><path d="M747.1518,1044.6406 Q746.5737,1044.9375 745.9331,1045.0781 Q745.2925,1045.2344 744.5893,1045.2344 Q742.0893,1045.2344 740.7612,1043.5938 Q739.4487,1041.9375 739.4487,1038.8125 Q739.4487,1035.6875 740.7612,1034.0313 Q742.0893,1032.375 744.5893,1032.375 Q745.2925,1032.375 745.9331,1032.5313 Q746.5893,1032.6875 747.1518,1032.9844 L747.1518,1035.7031 Q746.5268,1035.125 745.9331,1034.8594 Q745.3393,1034.5781 744.7143,1034.5781 Q743.3706,1034.5781 742.6831,1035.6563 Q741.9956,1036.7188 741.9956,1038.8125 Q741.9956,1040.9063 742.6831,1041.9844 Q743.3706,1043.0469 744.7143,1043.0469 Q745.3393,1043.0469 745.9331,1042.7813 Q746.5268,1042.5 747.1518,1041.9219 L747.1518,1044.6406 Z " fill="#000000"/><text fill="#000000" font-family="sans-serif" font-size="14" lengthAdjust="spacing" textLength="60.3135" x="764.6831" y="1043.8467">Function</text><line style="stroke:#181818;stroke-width:0.5;" x1="630.77" x2="926.4096" y1="1055" y2="1055"/><rect fill="transparent" height="6" style="stroke:#C82930;stroke-width:1;" width="6" x="637.77" y="1065.6484"/><text fill="#000000" font-family="sans-serif" font-size="14" lengthAdjust="spacing" textLength="163.5293" x="649.77" y="1071.9951">expression_: std::string</text><rect fill="transparent" height="6" style="stroke:#C82930;stroke-width:1;" width="6" x="637.77" y="1081.9453"/><text fill="#000000" font-family="sans-serif" font-size="14" lengthAdjust="spacing" textLength="271.6396" x="649.77" y="1088.292">vecOperand_: std::vector&lt;std::string&gt;</text><line style="stroke:#181818;stroke-width:0.5;" x1="630.77" x2="926.4096" y1="1095.5938" y2="1095.5938"/><ellipse cx="640.77" cy="1109.2422" fill="#84BE84" rx="3" ry="3" style="stroke:#038048;stroke-width:1;"/><text fill="#000000" font-family="sans-serif" font-size="14" lengthAdjust="spacing" textLength="227.7666" x="649.77" y="1112.5889">Function(expression: std::string)</text><ellipse cx="640.77" cy="1125.5391" fill="#84BE84" rx="3" ry="3" style="stroke:#038048;stroke-width:1;"/><text fill="#000000" font-family="sans-serif" font-size="14" lengthAdjust="spacing" textLength="224.2393" x="649.77" y="1128.8857">Calculate(point: Point&amp;): double</text></g><!--class NelderMeadSolver--><g id="elem_NelderMeadSolver"><rect codeLine="36" fill="#F1F1F1" height="373.9375" id="NelderMeadSolver" rx="2.5" ry="2.5" style="stroke:#181818;stroke-width:0.5;" width="722.8623" x="348.27" y="572"/><ellipse cx="641.2583" cy="588" fill="#ADD1B2" rx="11" ry="11" style="stroke:#181818;stroke-width:1;"/><path d="M644.227,593.6406 Q643.6489,593.9375 643.0083,594.0781 Q642.3677,594.2344 641.6645,594.2344 Q639.1645,594.2344 637.8364,592.5938 Q636.5239,590.9375 636.5239,587.8125 Q636.5239,584.6875 637.8364,583.0313 Q639.1645,581.375 641.6645,581.375 Q642.3677,581.375 643.0083,581.5313 Q643.6645,581.6875 644.227,581.9844 L644.227,584.7031 Q643.602,584.125 643.0083,583.8594 Q642.4145,583.5781 641.7895,583.5781 Q640.4458,583.5781 639.7583,584.6563 Q639.0708,585.7188 639.0708,587.8125 Q639.0708,589.9063 639.7583,590.9844 Q640.4458,592.0469 641.7895,592.0469 Q642.4145,592.0469 643.0083,591.7813 Q643.602,591.5 644.227,590.9219 L644.227,593.6406 Z " fill="#000000"/><text fill="#000000" font-family="sans-serif" font-size="14" lengthAdjust="spacing" textLength="128.3857" x="661.7583" y="592.8467">NelderMeadSolver</text><line style="stroke:#181818;stroke-width:0.5;" x1="349.27" x2="1070.1323" y1="604" y2="604"/><rect fill="transparent" height="6" style="stroke:#C82930;stroke-width:1;" width="6" x="356.27" y="614.6484"/><text fill="#000000" font-family="sans-serif" font-size="14" lengthAdjust="spacing" textLength="88.6758" x="368.27" y="620.9951">eps_: double</text><rect fill="transparent" height="6" style="stroke:#C82930;stroke-width:1;" width="6" x="356.27" y="630.9453"/><text fill="#000000" font-family="sans-serif" font-size="14" lengthAdjust="spacing" textLength="98.4375" x="368.27" y="637.292">epoch_: size_t</text><rect fill="transparent" height="6" style="stroke:#C82930;stroke-width:1;" width="6" x="356.27" y="647.2422"/><text fill="#000000" font-family="sans-serif" font-size="14" lengthAdjust="spacing" textLength="423.0967" x="368.27" y="653.5889">optimized_functions_: std::map&lt;std::string, std::list&lt;Log&gt;&gt;</text><rect fill="transparent" height="6" style="stroke:#C82930;stroke-width:1;" width="6" x="356.27" y="663.5391"/><text fill="#000000" font-family="sans-serif" font-size="14" lengthAdjust="spacing" textLength="186.293" x="368.27" y="669.8857">expan_coef_: const double</text><rect fill="transparent" height="6" style="stroke:#C82930;stroke-width:1;" width="6" x="356.27" y="679.8359"/><text fill="#000000" font-family="sans-serif" font-size="14" lengthAdjust="spacing" textLength="181.959" x="368.27" y="686.1826">shrnk_coef_: const double</text><rect fill="transparent" height="6" style="stroke:#C82930;stroke-width:1;" width="6" x="356.27" y="696.1328"/><text fill="#000000" font-family="sans-serif" font-size="14" lengthAdjust="spacing" textLength="174.8564" x="368.27" y="702.4795">refle_coef_: const double</text><rect fill="transparent" height="6" style="stroke:#C82930;stroke-width:1;" width="6" x="356.27" y="712.4297"/><text fill="#000000" font-family="sans-serif" font-size="14" lengthAdjust="spacing" textLength="208.9951" x="368.27" y="718.7764">update_simplex_: const size_t</text><line style="stroke:#181818;stroke-width:0.5;" x1="349.27" x2="1070.1323" y1="726.0781" y2="726.0781"/><ellipse cx="359.27" cy="739.7266" fill="#84BE84" rx="3" ry="3" style="stroke:#038048;stroke-width:1;"/><text fill="#000000" font-family="sans-serif" font-size="14" lengthAdjust="spacing" textLength="429.6934" x="368.27" y="743.0732">NelderMeadSolver(eps: double = 10e-5, epoch: size_t = 100)</text><ellipse cx="359.27" cy="756.0234" fill="#84BE84" rx="3" ry="3" style="stroke:#038048;stroke-width:1;"/><text fill="#000000" font-family="sans-serif" font-size="14" lengthAdjust="spacing" textLength="503.4395" x="368.27" y="759.3701">Optimize(function: const std::string&amp;, start_point: const Point&amp;): double</text><ellipse cx="359.27" cy="772.3203" fill="#84BE84" rx="3" ry="3" style="stroke:#038048;stroke-width:1;"/><text fill="#000000" font-family="sans-serif" font-size="14" lengthAdjust="spacing" textLength="320.5439" x="368.27" y="775.667">CountDim(function: const std::string&amp;): size_t</text><ellipse cx="359.27" cy="788.6172" fill="#84BE84" rx="3" ry="3" style="stroke:#038048;stroke-width:1;"/><text fill="#000000" font-family="sans-serif" font-size="14" lengthAdjust="spacing" textLength="368.9014" x="368.27" y="791.9639">GetLogs(function: const std::string&amp;): std::list&lt;Log&gt;</text><ellipse cx="359.27" cy="804.9141" fill="#84BE84" rx="3" ry="3" style="stroke:#038048;stroke-width:1;"/><text fill="#000000" font-family="sans-serif" font-size="14" lengthAdjust="spacing" textLength="134.9688" x="368.27" y="808.2607">eps() const: double</text><ellipse cx="359.27" cy="821.2109" fill="#84BE84" rx="3" ry="3" style="stroke:#038048;stroke-width:1;"/><text fill="#000000" font-family="sans-serif" font-size="14" lengthAdjust="spacing" textLength="103.5166" x="368.27" y="824.5576">eps(): double&amp;</text><ellipse cx="359.27" cy="837.5078" fill="#84BE84" rx="3" ry="3" style="stroke:#038048;stroke-width:1;"/><text fill="#000000" font-family="sans-serif" font-size="14" lengthAdjust="spacing" textLength="144.7305" x="368.27" y="840.8545">epoch() const: size_t</text><ellipse cx="359.27" cy="853.8047" fill="#84BE84" rx="3" ry="3" style="stroke:#038048;stroke-width:1;"/><text fill="#000000" font-family="sans-serif" font-size="14" lengthAdjust="spacing" textLength="113.2783" x="368.27" y="857.1514">epoch(): size_t&amp;</text><rect fill="#F24D5C" height="6" style="stroke:#C82930;stroke-width:1;" width="6" x="356.27" y="867.1016"/><text fill="#000000" font-family="sans-serif" font-size="14" lengthAdjust="spacing" textLength="469.6836" x="368.27" y="873.4482">CalcCenter_(simplex: const std::multimap&lt;double, Point&gt;&amp;): Point</text><rect fill="#F24D5C" height="6" style="stroke:#C82930;stroke-width:1;" width="6" x="356.27" y="883.3984"/><text fill="#000000" font-family="sans-serif" font-size="14" lengthAdjust="spacing" textLength="685.4121" x="368.27" y="889.7451">GenerateSimplex_(dim: size_t, start_point: Point, func: Function&amp;): std::multimap&lt;double, Point&gt;</text><rect fill="#F24D5C" height="6" style="stroke:#C82930;stroke-width:1;" width="6" x="356.27" y="899.6953"/><text fill="#000000" font-family="sans-serif" font-size="14" lengthAdjust="spacing" textLength="610.4971" x="368.27" y="906.042">SimplexToVector_(simplex: const std::multimap&lt;double, Point&gt;&amp;): std::vector&lt;Point&gt;</text><rect fill="#F24D5C" height="6" style="stroke:#C82930;stroke-width:1;" width="6" x="356.27" y="915.9922"/><text fill="#000000" font-family="sans-serif" font-size="14" lengthAdjust="spacing" textLength="696.8623" x="368.27" y="922.3389">LocalShrink_(func: Function&amp;, simplex: std::multimap&lt;double, Point&gt;&amp;, center: const Point&amp;): void</text><rect fill="#F24D5C" height="6" style="stroke:#C82930;stroke-width:1;" width="6" x="356.27" y="932.2891"/><text fill="#000000" font-family="sans-serif" font-size="14" lengthAdjust="spacing" textLength="553.335" x="368.27" y="938.6357">GlobalShrink_(func: Function&amp;, simplex: std::multimap&lt;double, Point&gt;&amp;): void</text></g><!--class AppUI--><g id="elem_AppUI"><rect codeLine="59" fill="#F1F1F1" height="488.0156" id="AppUI" rx="2.5" ry="2.5" style="stroke:#181818;stroke-width:0.5;" width="371.666" x="71.77" y="7"/><ellipse cx="232.4897" cy="23" fill="#ADD1B2" rx="11" ry="11" style="stroke:#181818;stroke-width:1;"/><path d="M235.4585,28.6406 Q234.8804,28.9375 234.2397,29.0781 Q233.5991,29.2344 232.896,29.2344 Q230.396,29.2344 229.0679,27.5938 Q227.7554,25.9375 227.7554,22.8125 Q227.7554,19.6875 229.0679,18.0313 Q230.396,16.375 232.896,16.375 Q233.5991,16.375 234.2397,16.5313 Q234.896,16.6875 235.4585,16.9844 L235.4585,19.7031 Q234.8335,19.125 234.2397,18.8594 Q233.646,18.5781 233.021,18.5781 Q231.6772,18.5781 230.9897,19.6563 Q230.3022,20.7188 230.3022,22.8125 Q230.3022,24.9063 230.9897,25.9844 Q231.6772,27.0469 233.021,27.0469 Q233.646,27.0469 234.2397,26.7813 Q234.8335,26.5 235.4585,25.9219 L235.4585,28.6406 Z " fill="#000000"/><text fill="#000000" font-family="sans-serif" font-size="14" lengthAdjust="spacing" textLength="41.7266" x="252.9897" y="27.8467">AppUI</text><line style="stroke:#181818;stroke-width:0.5;" x1="72.77" x2="442.436" y1="39" y2="39"/><rect fill="transparent" height="6" style="stroke:#C82930;stroke-width:1;" width="6" x="79.77" y="49.6484"/><text fill="#000000" font-family="sans-serif" font-size="14" lengthAdjust="spacing" textLength="186.9561" x="91.77" y="55.9951">_solver: NelderMeadSolver</text><rect fill="transparent" height="6" style="stroke:#C82930;stroke-width:1;" width="6" x="79.77" y="65.9453"/><text fill="#000000" font-family="sans-serif" font-size="14" lengthAdjust="spacing" textLength="194.3662" x="91.77" y="72.292">_readedFunction: char[128]</text><rect fill="transparent" height="6" style="stroke:#C82930;stroke-width:1;" width="6" x="79.77" y="82.2422"/><text fill="#000000" font-family="sans-serif" font-size="14" lengthAdjust="spacing" textLength="181.043" x="91.77" y="88.5889">_inputFunction: char[128]</text><rect fill="transparent" height="6" style="stroke:#C82930;stroke-width:1;" width="6" x="79.77" y="98.5391"/><text fill="#000000" font-family="sans-serif" font-size="14" lengthAdjust="spacing" textLength="145.1133" x="91.77" y="104.8857">_defaultString: char*</text><rect fill="transparent" height="6" style="stroke:#C82930;stroke-width:1;" width="6" x="79.77" y="114.8359"/><text fill="#000000" font-family="sans-serif" font-size="14" lengthAdjust="spacing" textLength="119.2939" x="91.77" y="121.1826">_startPoint: Point</text><rect fill="transparent" height="6" style="stroke:#C82930;stroke-width:1;" width="6" x="79.77" y="131.1328"/><text fill="#000000" font-family="sans-serif" font-size="14" lengthAdjust="spacing" textLength="145.1816" x="91.77" y="137.4795">_logs: std::list&lt;Log&gt;</text><rect fill="transparent" height="6" style="stroke:#C82930;stroke-width:1;" width="6" x="79.77" y="147.4297"/><text fill="#000000" font-family="sans-serif" font-size="14" lengthAdjust="spacing" textLength="139.2822" x="91.77" y="153.7764">_printFunction: bool</text><rect fill="transparent" height="6" style="stroke:#C82930;stroke-width:1;" width="6" x="79.77" y="163.7266"/><text fill="#000000" font-family="sans-serif" font-size="14" lengthAdjust="spacing" textLength="166.708" x="91.77" y="170.0732">_optimizeFunction: bool</text><rect fill="transparent" height="6" style="stroke:#C82930;stroke-width:1;" width="6" x="79.77" y="180.0234"/><text fill="#000000" font-family="sans-serif" font-size="14" lengthAdjust="spacing" textLength="130.1221" x="91.77" y="186.3701">_printDefault: bool</text><rect fill="transparent" height="6" style="stroke:#C82930;stroke-width:1;" width="6" x="79.77" y="196.3203"/><text fill="#000000" font-family="sans-serif" font-size="14" lengthAdjust="spacing" textLength="139.6787" x="91.77" y="202.667">_showSettings: bool</text><rect fill="transparent" height="6" style="stroke:#C82930;stroke-width:1;" width="6" x="79.77" y="212.6172"/><text fill="#000000" font-family="sans-serif" font-size="14" lengthAdjust="spacing" textLength="114.8027" x="91.77" y="218.9639">_showLogs: bool</text><rect fill="transparent" height="6" style="stroke:#C82930;stroke-width:1;" width="6" x="79.77" y="228.9141"/><text fill="#000000" font-family="sans-serif" font-size="14" lengthAdjust="spacing" textLength="114.4473" x="91.77" y="235.2607">_answer: double</text><rect fill="transparent" height="6" style="stroke:#C82930;stroke-width:1;" width="6" x="79.77" y="245.2109"/><text fill="#000000" font-family="sans-serif" font-size="14" lengthAdjust="spacing" textLength="82.0654" x="91.77" y="251.5576">_error: float</text><rect fill="transparent" height="6" style="stroke:#C82930;stroke-width:1;" width="6" x="79.77" y="261.5078"/><text fill="#000000" font-family="sans-serif" font-size="14" lengthAdjust="spacing" textLength="100.8574" x="91.77" y="267.8545">_iterations: int</text><rect fill="transparent" height="6" style="stroke:#C82930;stroke-width:1;" width="6" x="79.77" y="277.8047"/><text fill="#000000" font-family="sans-serif" font-size="14" lengthAdjust="spacing" textLength="135.6182" x="91.77" y="284.1514">_dimensions: size_t</text><line style="stroke:#181818;stroke-width:0.5;" x1="72.77" x2="442.436" y1="291.4531" y2="291.4531"/><ellipse cx="82.77" cy="305.1016" fill="#84BE84" rx="3" ry="3" style="stroke:#038048;stroke-width:1;"/><text fill="#000000" font-family="sans-serif" font-size="14" lengthAdjust="spacing" textLength="190.7637" x="91.77" y="308.4482">AppUI(defaultString: char*)</text><ellipse cx="82.77" cy="321.3984" fill="#84BE84" rx="3" ry="3" style="stroke:#038048;stroke-width:1;"/><text fill="#000000" font-family="sans-serif" font-size="14" lengthAdjust="spacing" textLength="52.6504" x="91.77" y="324.7451">AppUI()</text><ellipse cx="82.77" cy="337.6953" fill="#84BE84" rx="3" ry="3" style="stroke:#038048;stroke-width:1;"/><text fill="#000000" font-family="sans-serif" font-size="14" lengthAdjust="spacing" textLength="64.3809" x="91.77" y="341.042">~AppUI()</text><ellipse cx="82.77" cy="353.9922" fill="#84BE84" rx="3" ry="3" style="stroke:#038048;stroke-width:1;"/><text fill="#000000" font-family="sans-serif" font-size="14" lengthAdjust="spacing" textLength="112.0479" x="91.77" y="357.3389">initFrame():void</text><ellipse cx="82.77" cy="370.2891" fill="#84BE84" rx="3" ry="3" style="stroke:#038048;stroke-width:1;"/><text fill="#000000" font-family="sans-serif" font-size="14" lengthAdjust="spacing" textLength="164.3359" x="91.77" y="373.6357">showIputWindow():void</text><ellipse cx="82.77" cy="386.5859" fill="#84BE84" rx="3" ry="3" style="stroke:#038048;stroke-width:1;"/><text fill="#000000" font-family="sans-serif" font-size="14" lengthAdjust="spacing" textLength="185.5889" x="91.77" y="389.9326">showOutputWindow():void</text><ellipse cx="82.77" cy="402.8828" fill="#84BE84" rx="3" ry="3" style="stroke:#038048;stroke-width:1;"/><text fill="#000000" font-family="sans-serif" font-size="14" lengthAdjust="spacing" textLength="194.3799" x="91.77" y="406.2295">showSettingsWindow():void</text><ellipse cx="82.77" cy="419.1797" fill="#84BE84" rx="3" ry="3" style="stroke:#038048;stroke-width:1;"/><text fill="#000000" font-family="sans-serif" font-size="14" lengthAdjust="spacing" textLength="345.666" x="91.77" y="422.5264">isExpressionCorrect(expression: std::string): bool</text><rect fill="#F24D5C" height="6" style="stroke:#C82930;stroke-width:1;" width="6" x="79.77" y="432.4766"/><text fill="#000000" font-family="sans-serif" font-size="14" lengthAdjust="spacing" textLength="251.2891" x="91.77" y="438.8232">printPoint(point: const Point&amp;): void</text><rect fill="#F24D5C" height="6" style="stroke:#C82930;stroke-width:1;" width="6" x="79.77" y="448.7734"/><text fill="#000000" font-family="sans-serif" font-size="14" lengthAdjust="spacing" textLength="141.8662" x="91.77" y="455.1201">readFunction(): void</text><rect fill="#F24D5C" height="6" style="stroke:#C82930;stroke-width:1;" width="6" x="79.77" y="465.0703"/><text fill="#000000" font-family="sans-serif" font-size="14" lengthAdjust="spacing" textLength="170.3516" x="91.77" y="471.417">optimizeFunction(): void</text><rect fill="#F24D5C" height="6" style="stroke:#C82930;stroke-width:1;" width="6" x="79.77" y="481.3672"/><text fill="#000000" font-family="sans-serif" font-size="14" lengthAdjust="spacing" textLength="144.5664" x="91.77" y="487.7139">clearFunction(): void</text></g><path d="M399.27,1062 L399.27,1070.5664 L358.1655,1075.1484 L399.27,1078.5664 L399.27,1087.1328 A0,0 0 0 0 399.27,1087.1328 L594.145,1087.1328 A0,0 0 0 0 594.145,1087.1328 L594.145,1072 L584.145,1062 L399.27,1062 A0,0 0 0 0 399.27,1062 " fill="#FEFFDD" style="stroke:#181818;stroke-width:0.5;"/><path d="M584.145,1062 L584.145,1072 L594.145,1072 L584.145,1062 " fill="#FEFFDD" style="stroke:#181818;stroke-width:0.5;"/><text fill="#000000" font-family="sans-serif" font-size="13" lengthAdjust="spacing" textLength="173.875" x="405.27" y="1079.0669">Vector of points in simplex</text><path d="M1020.77,1374.5 L1020.77,1383.0664 L786.6567,1257.1484 L1020.77,1391.0664 L1020.77,1399.6328 A0,0 0 0 0 1020.77,1399.6328 L1268.54,1399.6328 A0,0 0 0 0 1268.54,1399.6328 L1268.54,1384.5 L1258.54,1374.5 L1020.77,1374.5 A0,0 0 0 0 1020.77,1374.5 " fill="#FEFFDD" style="stroke:#181818;stroke-width:0.5;"/><path d="M1258.54,1374.5 L1258.54,1384.5 L1268.54,1384.5 L1258.54,1374.5 " fill="#FEFFDD" style="stroke:#181818;stroke-width:0.5;"/><text fill="#000000" font-family="sans-serif" font-size="13" lengthAdjust="spacing" textLength="226.77" x="1026.77" y="1391.5669">Stores the coordinates of the point</text><path d="M1655.77,741.5 L1655.77,750.0664 L791.3667,648.7422 L1655.77,758.0664 L1655.77,766.6328 A0,0 0 0 0 1655.77,766.6328 L2019.5244,766.6328 A0,0 0 0 0 2019.5244,766.6328 L2019.5244,751.5 L2009.5244,741.5 L1655.77,741.5 A0,0 0 0 0 1655.77,741.5 " fill="#FEFFDD" style="stroke:#181818;stroke-width:0.5;"/><path d="M2009.5244,741.5 L2009.5244,751.5 L2019.5244,751.5 L2009.5244,741.5 " fill="#FEFFDD" style="stroke:#181818;stroke-width:0.5;"/><text fill="#000000" font-family="sans-serif" font-size="13" lengthAdjust="spacing" textLength="342.7544" x="1661.77" y="758.5669">Store logs for each function that has been optimized</text><g id="elem_GMN20"><path d="M1106.77,746.5 L1106.77,755 L1071.58,759 L1106.77,763 L1106.77,771.6328 A0,0 0 0 0 1106.77,771.6328 L1620.5513,771.6328 A0,0 0 0 0 1620.5513,771.6328 L1620.5513,756.5 L1610.5513,746.5 L1106.77,746.5 A0,0 0 0 0 1106.77,746.5 " fill="#FEFFDD" style="stroke:#181818;stroke-width:0.5;"/><path d="M1610.5513,746.5 L1610.5513,756.5 L1620.5513,756.5 L1610.5513,746.5 " fill="#FEFFDD" style="stroke:#181818;stroke-width:0.5;"/><text fill="#000000" font-family="sans-serif" font-size="13" lengthAdjust="spacing" textLength="492.7813" x="1112.77" y="763.5669">Class for finding the minimum of a function using the Nelder-Mead method.</text></g><g id="elem_GMN23"><path d="M478.77,238.5 L478.77,247 L444.05,251 L478.77,255 L478.77,263.6328 A0,0 0 0 0 478.77,263.6328 L861.0342,263.6328 A0,0 0 0 0 861.0342,263.6328 L861.0342,248.5 L851.0342,238.5 L478.77,238.5 A0,0 0 0 0 478.77,238.5 " fill="#FEFFDD" style="stroke:#181818;stroke-width:0.5;"/><path d="M851.0342,238.5 L851.0342,248.5 L861.0342,248.5 L851.0342,238.5 " fill="#FEFFDD" style="stroke:#181818;stroke-width:0.5;"/><text fill="#000000" font-family="sans-serif" font-size="13" lengthAdjust="spacing" textLength="361.2642" x="484.77" y="255.5669">Class for UI interaction, optimization, and logs handling</text></g><g id="elem_GMN26"><path d="M963.27,1067 L963.27,1075.5 L928.06,1079.5 L963.27,1083.5 L963.27,1092.1328 A0,0 0 0 0 963.27,1092.1328 L1189.9721,1092.1328 A0,0 0 0 0 1189.9721,1092.1328 L1189.9721,1077 L1179.9721,1067 L963.27,1067 A0,0 0 0 0 963.27,1067 " fill="#FEFFDD" style="stroke:#181818;stroke-width:0.5;"/><path d="M1179.9721,1067 L1179.9721,1077 L1189.9721,1077 L1179.9721,1067 " fill="#FEFFDD" style="stroke:#181818;stroke-width:0.5;"/><text fill="#000000" font-family="sans-serif" font-size="13" lengthAdjust="spacing" textLength="205.7021" x="969.27" y="1084.0669">Class for expression calculation</text></g><!--link NelderMeadSolver to Log--><g id="link_NelderMeadSolver_Log"><path codeLine="90" d="M445.53,946.19 C401.1,977.5 358.69,1007.38 325.46,1030.8 " fill="transparent" id="NelderMeadSolver-Log" style="stroke:#181818;stroke-width:1;"/><text fill="#000000" font-family="sans-serif" font-size="13" lengthAdjust="spacing" textLength="55.0278" x="392.77" y="989.0669">contains</text><text fill="#000000" font-family="sans-serif" font-size="13" lengthAdjust="spacing" textLength="8.271" x="427.0599" y="965.8658">1</text><text fill="#000000" font-family="sans-serif" font-size="13" lengthAdjust="spacing" textLength="23.0356" x="310.3364" y="1019.9808">0..*</text></g><!--link NelderMeadSolver to Function--><g id="link_NelderMeadSolver_Function"><path codeLine="91" d="M750.11,946.19 C756.15,974.1 761.95,1000.87 766.73,1022.94 " fill="transparent" id="NelderMeadSolver-Function" style="stroke:#181818;stroke-width:1;"/><text fill="#000000" font-family="sans-serif" font-size="13" lengthAdjust="spacing" textLength="29.7832" x="758.77" y="989.0669">uses</text><text fill="#000000" font-family="sans-serif" font-size="13" lengthAdjust="spacing" textLength="8.271" x="743.5375" y="965.8658">1</text><text fill="#000000" font-family="sans-serif" font-size="13" lengthAdjust="spacing" textLength="8.271" x="756.7153" y="1011.7957">1</text></g><!--link NelderMeadSolver to Point--><g id="link_NelderMeadSolver_Point"><path codeLine="92" d="M1071.37,942.85 C1145.2,981.84 1202.38,1014.06 1207.77,1023 C1233.69,1066.01 1236.33,1094.69 1207.77,1136 C1152.65,1215.71 1088.1,1165.26 1003.77,1213 C997.7,1216.44 991.62,1220.03 985.55,1223.75 " fill="transparent" id="NelderMeadSolver-Point" style="stroke:#181818;stroke-width:1;"/><text fill="#000000" font-family="sans-serif" font-size="13" lengthAdjust="spacing" textLength="29.7832" x="1228.77" y="1084.0669">uses</text><text fill="#000000" font-family="sans-serif" font-size="13" lengthAdjust="spacing" textLength="8.271" x="1078.8004" y="943.501">1</text><text fill="#000000" font-family="sans-serif" font-size="13" lengthAdjust="spacing" textLength="23.0356" x="993.3873" y="1214.5097">1..*</text></g><!--link Function to Point--><g id="link_Function_Point"><path codeLine="93" d="M778.77,1136.01 C778.77,1158.16 778.77,1185.02 778.77,1212.87 " fill="transparent" id="Function-Point" style="stroke:#181818;stroke-width:1;"/><text fill="#000000" font-family="sans-serif" font-size="13" lengthAdjust="spacing" textLength="29.7832" x="779.77" y="1179.0669">uses</text><text fill="#000000" font-family="sans-serif" font-size="13" lengthAdjust="spacing" textLength="8.271" x="770.2979" y="1156.2747">1</text><text fill="#000000" font-family="sans-serif" font-size="13" lengthAdjust="spacing" textLength="8.271" x="770.5978" y="1202.0738">1</text></g><!--link AppUI to NelderMeadSolver--><g id="link_AppUI_NelderMeadSolver"><path codeLine="94" d="M443.91,475.9 C449.57,482.36 455.2,488.74 460.77,495 C483.13,520.13 507.01,546.25 530.82,571.84 " fill="transparent" id="AppUI-NelderMeadSolver" style="stroke:#181818;stroke-width:1;"/><text fill="#000000" font-family="sans-serif" font-size="13" lengthAdjust="spacing" textLength="29.7832" x="501.77" y="538.0669">uses</text><text fill="#000000" font-family="sans-serif" font-size="13" lengthAdjust="spacing" textLength="8.271" x="451.3492" y="481.4614">1</text><text fill="#000000" font-family="sans-serif" font-size="13" lengthAdjust="spacing" textLength="8.271" x="515.1104" y="560.6988">1</text></g><!--link AppUI to Point--><g id="link_AppUI_Point"><path codeLine="95" d="M139.24,495.31 C65.27,685.44 6,948.09 133.77,1136 C231.18,1279.26 422.83,1342.04 572.02,1369.55 " fill="transparent" id="AppUI-Point" style="stroke:#181818;stroke-width:1;"/><text fill="#000000" font-family="sans-serif" font-size="13" lengthAdjust="spacing" textLength="29.7832" x="72.77" y="989.0669">uses</text><text fill="#000000" font-family="sans-serif" font-size="13" lengthAdjust="spacing" textLength="8.271" x="127.6114" y="514.8542">1</text><text fill="#000000" font-family="sans-serif" font-size="13" lengthAdjust="spacing" textLength="8.271" x="555.7844" y="1365.4566">1</text></g><!--link AppUI to Log--><g id="link_AppUI_Log"><path codeLine="96" d="M257.77,495.23 C257.77,683.57 257.77,928.97 257.77,1030.9 " fill="transparent" id="AppUI-Log" style="stroke:#181818;stroke-width:1;"/><text fill="#000000" font-family="sans-serif" font-size="13" lengthAdjust="spacing" textLength="29.7832" x="258.77" y="763.5669">uses</text><text fill="#000000" font-family="sans-serif" font-size="13" lengthAdjust="spacing" textLength="8.271" x="249.6602" y="514.7719">1</text><text fill="#000000" font-family="sans-serif" font-size="13" lengthAdjust="spacing" textLength="23.0356" x="233.1275" y="1020.0949">0..*</text></g><!--SRC=[fLTjQzmu4Fw-lqBaGt2owv0K3egv18xjvIZqciBUouTIZ6BBiQWi6KbEmXtNtzxHoB9bhvqZz5EyCu-UUT7CQ588QWpvfBYqvDyD8IafgQLvHemji-oH5LRfdqlLtGjs0-gjXoObRvWqN4a3IFuFo-rPh0MAZ1IWjKiyfyTOH779BQS2w7GkkB43Vd90sPhfm8wY9RLNz1hLCat1WUl5mm6y30r44zGtRykp7y3Xv2paOSBo-Kl2o-SXHTvkHdnSBo43PkhKzXK1fA_0dbydXM9LCBeCsYQ2LNPAjoEQFzHssSRKdHywVPwqJZO_lkJqx5mCsP45bk7SVvjDWStmGJrWAsmzt4nx0S6-5Hf6JQVPv3whJXRv8nM3SA2z1Os5Za5krsZikTNCk2OAxMQivlAXLuEzEnU6B6VT645l4BiTk9EHSq9vrkFsL1ITe9Q5V0uvc7lxaOcIwTyPBGzAF3BT3mVMcZoArmbKKUTHyQUGVCiR-5dcLU-M2H4qj8tTttafzZfa_UPcq-U5ojnTN1wkAZ9eQYs_hcergmHRrNOjJ1kM6zwqWZqFYAXnvs4d4728broJgqkM_hJpGOUOKNpfHy5T7teI8fzCGH_qgOkQQfil5sDKItlLIVkEDo-oJGVFRyn28it_dfYa7Kz2eCdIW4BvT1nX-2CuCjzhWkmKi-wARi-aXQcUzAcVkDLq0h86bH6wrBTOF0bI24owbcQ7_kxS2nJCp1AAXtROYTdG6KFKAzRGI4_-X_eBE-tLxYxEYHG6Ia75eORaVysJcLlWUx3n8ZiCEqpXKRqyAbxw30br_yDc0k4m1tvfsp_V- -RF3RP4TjGagDJmavMtOztLL7- -UlFs2sgvR3kxfYnPHS6V0vQdLvvxW-vQFqMtYb811RvGmcdUmld8oBrI0kLX82seyCWxRpyIcrez7PYru8-PYJ-eYOXAy-HoCawPd6cjG589HRt3tBhIzSjI2E9uWTgu3i9q9qi9EHlL-Faj-dQBqwscZLj3-dhOEb_VGzB_vh9KJpF5NMVNL27i8oKtlmwForvf3MM- -joC2S84-srfUTw5-dNrCpnZaNn-UR6k48pg8mNKxj7hTN9rGjAKd5nUN9oVu0kFZbZAfLb7mv_XrSv8PzXBM6JsYtIF7Sv6V1E0Rwv8EsTVm_KziQ0S0kor6waiytiMKHKgCh_Mu4hW1vtJU27KPvWK6oPBuaxFERpn3FzFG983K313ODk4d2fTSWc3sZYe4o7nI3RbEWeuMzeUHYl4DJ-fm6L6Yve421YYbjJKa7l6vBY1hCQmCC88sUF4S-GL53_KCVhVG7SrNUDEqT5WPuBUKwME2pP2MwloOjKitjNC5bmUTvET8l4kE4_zBrZ_VCmrV0ct7QvnXsgRqOyjIef- -tEWmF8T]--></g></svg>